{"glyphs":{"0":{"ha":978,"x_min":42,"x_max":936,"o":"m 817 115 q 758 50 817 115 q 489 -14 699 -14 q 160 115 279 -14 q 42 465 42 243 q 160 816 42 688 q 489 944 279 944 q 817 816 699 944 q 936 465 936 688 q 817 115 936 243 m 270 211 q 305 171 270 211 q 489 131 340 131 q 707 211 638 131 q 776 465 776 292 q 707 719 776 639 q 489 800 638 800 q 270 719 340 800 q 200 465 200 639 q 270 211 200 292 z "},"1":{"ha":461,"x_min":14,"x_max":392,"o":"m 392 0 l 242 0 l 242 708 l 14 708 l 14 815 l 58 815 q 184 840 138 815 q 260 931 231 865 l 392 931 l 392 0 z "},"2":{"ha":871,"x_min":46,"x_max":829,"o":"m 826 0 l 47 0 l 47 99 q 106 301 47 228 q 307 422 164 374 l 529 499 q 647 563 614 529 q 679 658 679 597 q 625 770 679 733 q 449 807 571 807 q 253 760 313 807 q 193 619 193 714 l 193 603 l 46 603 l 46 617 q 147 851 46 757 q 454 944 249 944 q 736 865 643 944 q 829 656 829 786 q 763 478 829 546 q 567 372 696 411 l 371 313 q 240 238 276 279 q 203 119 203 197 l 428 135 l 826 135 l 826 0 z "},"3":{"ha":904,"x_min":42,"x_max":869,"o":"m 461 -14 q 146 72 250 -14 q 42 304 42 157 l 42 326 l 200 326 l 200 307 q 253 169 200 211 q 456 128 307 128 q 658 163 599 128 q 718 282 718 199 q 538 419 718 419 l 278 419 l 278 544 l 517 544 q 688 669 688 544 q 635 771 688 739 q 451 803 583 803 q 256 760 313 803 q 200 624 200 718 l 200 614 l 42 614 l 42 626 q 149 857 42 769 q 464 944 256 944 q 740 881 643 944 q 836 699 836 817 q 790 565 836 618 q 654 499 743 513 l 654 488 q 813 412 757 469 q 869 260 869 354 q 761 58 869 129 q 461 -14 653 -14 z "},"4":{"ha":958,"x_min":28,"x_max":931,"o":"m 771 0 l 622 0 l 622 189 l 28 189 l 28 293 l 597 931 l 771 931 l 771 324 l 931 324 l 931 189 l 771 189 l 771 0 m 235 324 l 622 324 l 622 756 l 611 756 l 235 335 l 235 324 z "},"5":{"ha":919,"x_min":49,"x_max":871,"o":"m 468 -14 q 157 63 265 -14 q 49 281 49 139 l 49 296 l 201 296 l 201 281 q 266 160 201 199 q 471 122 331 122 q 656 164 597 122 q 714 303 714 206 q 656 438 714 397 q 471 479 599 479 q 207 410 285 479 l 197 413 l 197 410 l 58 419 l 108 931 l 826 931 l 826 796 l 239 796 l 206 492 l 217 490 q 338 567 257 535 q 526 599 419 599 q 781 522 690 599 q 871 303 871 446 q 767 71 871 156 q 468 -14 663 -14 z "},"6":{"ha":956,"x_min":47,"x_max":904,"o":"m 500 -14 q 154 101 261 -14 q 47 469 47 215 q 163 820 47 696 q 489 944 278 944 q 773 863 665 944 q 881 640 881 781 l 881 629 l 715 629 l 715 640 q 489 803 715 803 q 272 729 336 803 q 207 489 207 656 l 207 415 l 219 415 q 331 531 246 486 q 544 576 417 576 q 810 501 717 576 q 904 288 904 426 q 798 67 904 149 q 500 -14 692 -14 m 492 129 q 688 170 628 129 q 749 299 749 211 q 689 428 749 386 q 493 469 629 469 q 225 304 225 469 q 492 129 225 129 z "},"7":{"ha":790,"x_min":14,"x_max":783,"o":"m 385 -1 l 215 -1 q 241 233 215 124 q 303 419 267 342 q 399 569 340 496 q 507 688 457 642 q 624 785 557 733 l 624 796 l 14 796 l 14 931 l 783 931 l 783 810 q 477 440 569 617 q 385 -1 385 263 z "},"8":{"ha":915,"x_min":32,"x_max":885,"o":"m 458 -14 q 144 54 257 -14 q 32 254 32 122 q 92 406 32 347 q 258 488 151 465 l 258 499 q 110 567 163 513 q 58 701 58 621 q 162 879 58 814 q 458 944 265 944 q 755 879 651 944 q 858 701 858 814 q 806 567 858 621 q 657 499 754 513 l 657 488 q 885 254 885 442 q 772 54 885 122 q 458 -14 658 -14 m 458 535 q 651 567 592 535 q 710 668 710 599 q 654 769 710 736 q 458 803 599 803 q 264 769 319 803 q 208 668 208 736 q 267 567 208 600 q 458 535 326 535 m 246 164 q 277 146 246 164 q 458 128 308 128 q 671 164 608 128 q 733 282 733 200 q 670 396 733 360 q 458 432 607 432 q 247 396 310 432 q 183 282 183 360 q 246 164 183 200 z "},"9":{"ha":956,"x_min":47,"x_max":904,"o":"m 468 -14 q 184 68 292 -14 q 76 290 76 150 l 76 301 l 240 301 l 240 290 q 468 128 240 128 q 682 203 618 128 q 746 449 746 279 l 746 522 l 733 522 q 620 401 706 449 q 407 354 535 354 q 141 429 235 354 q 47 643 47 504 q 153 863 47 782 q 453 944 260 944 q 798 832 692 944 q 904 468 904 719 q 791 113 904 240 q 468 -14 678 -14 m 458 461 q 728 633 728 461 q 460 801 728 801 q 264 760 324 801 q 204 632 204 719 q 263 502 204 543 q 458 461 322 461 z "},"\r":{"ha":833,"x_min":0,"x_max":0,"o":""}," ":{"ha":238,"x_min":0,"x_max":0,"o":""},"!":{"ha":321,"x_min":65,"x_max":256,"o":"m 233 306 l 88 306 q 76 580 88 376 q 65 833 65 783 l 65 931 l 256 931 l 256 833 q 244 579 256 783 q 233 306 233 375 m 244 0 l 75 0 l 75 206 l 244 206 l 244 0 z "},"\"":{"ha":457,"x_min":35,"x_max":422,"o":"m 389 578 l 301 578 l 268 757 l 268 931 l 422 931 l 422 757 l 389 578 m 156 578 l 68 578 l 35 757 l 35 931 l 189 931 l 189 757 l 156 578 z "},"#":{"ha":1179,"x_min":28,"x_max":1151,"o":"m 282 0 l 135 0 l 214 207 l 28 207 l 28 340 l 268 340 l 356 571 l 135 571 l 135 704 l 408 704 l 496 931 l 643 931 l 556 704 l 808 704 l 896 931 l 1043 931 l 956 704 l 1151 704 l 1151 571 l 901 571 l 814 340 l 1043 340 l 1043 207 l 761 207 l 681 0 l 533 0 l 614 207 l 361 207 l 282 0 m 499 574 l 408 338 l 671 338 l 761 574 l 499 574 z "},"$":{"ha":888,"x_min":39,"x_max":850,"o":"m 518 -139 l 379 -139 l 379 -10 q 126 88 213 6 q 40 304 40 169 l 40 313 l 190 313 l 190 290 q 251 164 190 204 q 460 124 311 124 q 645 153 590 124 q 700 250 700 183 q 663 338 700 308 q 535 383 626 367 l 307 421 q 39 674 39 468 q 124 854 39 778 q 379 942 208 931 l 379 1069 l 518 1069 l 518 940 q 755 839 675 924 q 835 626 835 754 l 835 618 l 686 618 l 686 636 q 626 765 686 724 q 425 807 567 807 q 244 776 300 807 q 189 682 189 746 q 224 597 189 624 q 346 551 260 569 l 572 513 q 850 258 850 463 q 767 77 850 153 q 518 -11 683 1 l 518 -139 z "},"%":{"ha":1115,"x_min":28,"x_max":1088,"o":"m 442 549 q 411 516 442 549 q 267 483 379 483 q 91 549 154 483 q 28 715 28 614 q 91 881 28 815 q 267 946 154 946 q 442 881 379 946 q 506 715 506 815 q 442 549 506 614 m 236 0 l 90 0 l 881 931 l 1026 931 l 236 0 m 169 617 q 184 601 169 617 q 267 585 199 585 q 365 617 335 585 q 394 715 394 649 q 365 813 394 781 q 267 844 335 844 q 169 813 199 844 q 139 715 139 781 q 169 617 139 649 m 1024 51 q 993 18 1024 51 q 849 -14 961 -14 q 673 51 736 -14 q 610 217 610 115 q 673 382 610 317 q 849 447 736 447 q 1024 383 961 447 q 1088 217 1088 318 q 1024 51 1088 115 m 751 119 q 766 103 751 119 q 849 88 781 88 q 947 119 917 88 q 976 217 976 150 q 947 315 976 283 q 849 347 917 347 q 751 315 781 347 q 721 217 721 283 q 751 119 721 150 z "},"&":{"ha":979,"x_min":21,"x_max":981,"o":"m 415 -14 q 124 54 226 -14 q 21 254 21 122 q 78 413 21 353 q 236 488 135 472 l 236 499 q 101 566 149 511 q 54 700 54 621 q 143 880 54 819 q 394 940 232 940 l 588 940 l 588 804 l 375 804 q 243 774 283 804 q 203 674 203 744 q 379 544 203 544 l 682 544 l 682 690 l 829 690 l 829 544 l 981 544 l 981 419 l 829 419 l 829 324 q 415 -14 829 -14 m 421 122 q 625 165 568 122 q 682 317 682 208 l 682 419 l 351 419 q 172 271 172 419 q 228 157 172 192 q 421 122 283 122 z "},"'":{"ha":224,"x_min":35,"x_max":189,"o":"m 156 578 l 68 578 l 35 757 l 35 931 l 189 931 l 189 757 l 156 578 z "},"(":{"ha":418,"x_min":49,"x_max":404,"o":"m 404 -31 l 328 -100 q 49 465 49 164 q 328 1031 49 767 l 404 961 q 258 726 303 829 q 213 465 213 624 q 258 204 213 307 q 404 -31 303 101 z "},")":{"ha":447,"x_min":35,"x_max":389,"o":"m 35 961 l 110 1031 q 389 465 389 769 q 110 -100 389 161 l 35 -31 q 138 116 103 60 q 199 264 172 172 q 226 465 226 356 q 199 667 226 575 q 138 815 172 758 q 35 961 103 871 z "},"*":{"ha":518,"x_min":28,"x_max":490,"o":"m 253 629 l 171 501 l 81 567 l 176 683 l 174 694 l 28 733 l 63 839 l 204 782 l 213 789 l 204 940 l 315 940 l 306 789 l 315 782 l 457 838 l 490 732 l 343 694 l 339 683 l 436 567 l 346 500 l 265 629 l 253 629 z "},"+":{"ha":675,"x_min":49,"x_max":626,"o":"m 403 176 l 272 176 l 272 403 l 49 403 l 49 528 l 272 528 l 272 754 l 403 754 l 403 528 l 626 528 l 626 403 l 403 403 l 403 176 z "},",":{"ha":272,"x_min":42,"x_max":231,"o":"m 94 -156 l 44 -156 l 44 -64 l 90 -64 q 117 -57 110 -64 q 125 -29 125 -50 l 125 0 l 42 0 l 42 215 l 231 215 l 231 -28 q 94 -156 231 -156 z "},"-":{"ha":525,"x_min":42,"x_max":483,"o":"m 483 344 l 42 344 l 42 472 l 483 472 l 483 344 z "},".":{"ha":272,"x_min":42,"x_max":231,"o":"m 231 0 l 42 0 l 42 215 l 231 215 l 231 0 z "},"/":{"ha":599,"x_min":-28,"x_max":632,"o":"m 132 -28 l -28 -28 l 472 958 l 632 958 l 132 -28 z "},":":{"ha":272,"x_min":42,"x_max":231,"o":"m 231 475 l 42 475 l 42 690 l 231 690 l 231 475 m 231 0 l 42 0 l 42 215 l 231 215 l 231 0 z "},";":{"ha":272,"x_min":42,"x_max":231,"o":"m 231 475 l 42 475 l 42 690 l 231 690 l 231 475 m 94 -156 l 44 -156 l 44 -64 l 90 -64 q 117 -57 110 -64 q 125 -29 125 -50 l 125 0 l 42 0 l 42 215 l 231 215 l 231 -28 q 94 -156 231 -156 z "},"<":{"ha":668,"x_min":39,"x_max":617,"o":"m 39 553 l 617 774 l 617 632 l 175 471 l 175 460 l 617 299 l 617 157 l 39 378 l 39 553 z "},"=":{"ha":675,"x_min":49,"x_max":626,"o":"m 626 551 l 49 551 l 49 676 l 626 676 l 626 551 m 626 253 l 49 253 l 49 378 l 626 378 l 626 253 z "},">":{"ha":668,"x_min":49,"x_max":626,"o":"m 626 378 l 49 157 l 49 299 l 490 460 l 490 471 l 49 632 l 49 774 l 626 553 l 626 378 z "},"?":{"ha":826,"x_min":14,"x_max":792,"o":"m 436 303 l 286 303 l 286 350 q 319 448 286 410 q 421 515 353 486 l 521 558 q 614 613 586 586 q 642 686 642 640 q 594 777 642 746 q 421 808 546 808 q 220 765 279 808 q 161 632 161 722 l 161 592 l 14 592 l 14 624 q 117 854 14 764 q 431 944 221 944 q 702 874 613 944 q 792 692 792 804 q 740 547 792 600 q 600 456 689 494 l 500 414 q 449 381 461 397 q 436 332 436 364 l 436 303 m 447 0 l 278 0 l 278 206 l 447 206 l 447 0 z "},"@":{"ha":1242,"x_min":21,"x_max":1214,"o":"m 551 57 q 370 129 439 57 q 301 340 301 201 q 371 549 301 475 q 554 624 440 624 q 688 583 636 624 q 757 474 740 542 l 767 474 l 767 611 l 897 611 l 897 260 q 916 192 897 213 q 976 171 935 171 q 1060 220 1035 171 q 1086 394 1086 269 q 978 694 1086 597 q 635 790 869 790 q 272 685 389 790 q 156 344 156 581 q 265 12 156 115 q 601 -92 375 -92 q 836 -58 725 -92 l 861 -160 q 588 -207 735 -207 q 173 -60 325 -207 q 21 344 21 88 q 189 760 21 606 q 642 915 357 915 q 1060 779 906 915 q 1214 406 1214 643 q 1147 151 1214 246 q 967 57 1079 57 q 826 97 879 57 q 761 206 774 136 l 754 206 q 685 99 736 140 q 551 57 635 57 m 479 475 q 460 454 479 475 q 440 340 440 433 q 479 205 440 247 q 599 163 518 163 q 715 203 672 163 q 757 324 757 243 l 757 357 q 715 476 757 436 q 599 517 672 517 q 479 475 518 517 z "},"A":{"ha":1042,"x_min":0,"x_max":1042,"o":"m 167 0 l 0 0 l 415 931 l 626 931 l 1042 0 l 872 0 l 765 242 l 274 242 l 167 0 m 460 660 l 333 376 l 706 376 l 579 660 l 525 792 l 514 792 l 460 660 z "},"B":{"ha":929,"x_min":63,"x_max":901,"o":"m 603 0 l 63 0 l 63 931 l 583 931 q 793 871 718 931 q 868 701 868 811 q 818 560 868 615 q 665 493 768 506 l 665 483 q 842 410 782 469 q 901 257 901 351 q 824 68 901 136 q 603 0 746 0 m 211 796 l 211 540 l 563 540 q 719 668 719 540 q 567 796 719 796 l 211 796 m 211 417 l 211 135 l 586 135 q 711 169 671 135 q 751 278 751 203 q 586 417 751 417 l 211 417 z "},"C":{"ha":1010,"x_min":42,"x_max":968,"o":"m 522 -14 q 174 117 306 -14 q 42 465 42 249 q 174 813 42 682 q 522 944 306 944 q 844 847 721 944 q 968 583 968 749 l 968 564 l 803 564 l 803 583 q 524 801 803 801 q 280 720 360 801 q 200 465 200 639 q 279 212 200 293 q 524 131 358 131 q 803 349 803 131 l 803 367 l 968 367 l 968 349 q 845 84 968 182 q 522 -14 722 -14 z "},"D":{"ha":1014,"x_min":78,"x_max":972,"o":"m 501 0 l 78 0 l 78 931 l 501 931 q 845 806 718 931 q 972 465 972 681 q 845 125 972 250 q 501 0 718 0 m 501 796 l 226 796 l 226 135 l 501 135 q 740 212 665 135 q 814 465 814 289 q 740 719 814 642 q 501 796 665 796 z "},"E":{"ha":861,"x_min":69,"x_max":814,"o":"m 814 0 l 69 0 l 69 931 l 814 931 l 814 796 l 219 796 l 219 535 l 793 535 l 793 401 l 219 401 l 219 135 l 814 135 l 814 0 z "},"F":{"ha":851,"x_min":69,"x_max":810,"o":"m 219 0 l 69 0 l 69 931 l 810 931 l 810 796 l 219 796 l 219 507 l 789 507 l 789 374 l 219 374 l 219 0 z "},"G":{"ha":1039,"x_min":42,"x_max":982,"o":"m 497 -14 q 167 117 292 -14 q 42 465 42 249 q 176 814 42 683 q 535 944 311 944 q 858 850 735 944 q 982 596 982 756 l 982 585 l 817 585 l 817 596 q 531 801 817 801 q 281 720 363 801 q 200 465 200 639 q 279 212 200 293 q 524 131 358 131 q 762 181 690 131 q 833 349 833 231 l 833 361 l 489 361 l 489 475 l 982 475 l 982 0 l 846 0 l 846 201 l 836 201 q 719 42 807 99 q 497 -14 632 -14 z "},"H":{"ha":986,"x_min":69,"x_max":915,"o":"m 219 0 l 69 0 l 69 931 l 219 931 l 219 536 l 767 536 l 767 931 l 915 931 l 915 0 l 767 0 l 767 401 l 219 401 l 219 0 z "},"I":{"ha":289,"x_min":69,"x_max":219,"o":"m 219 0 l 69 0 l 69 931 l 219 931 l 219 0 z "},"J":{"ha":876,"x_min":28,"x_max":813,"o":"m 419 -14 q 122 83 217 -14 q 28 354 28 181 l 28 397 l 186 397 l 186 353 q 237 182 186 233 q 419 131 288 131 q 603 181 551 131 q 656 346 656 232 l 656 931 l 813 931 l 813 347 q 718 82 813 178 q 419 -14 624 -14 z "},"K":{"ha":961,"x_min":69,"x_max":951,"o":"m 219 0 l 69 0 l 69 931 l 219 931 l 219 533 l 501 533 l 774 931 l 951 931 l 626 471 l 950 0 l 772 0 l 504 389 l 219 389 l 219 0 z "},"L":{"ha":821,"x_min":69,"x_max":793,"o":"m 793 0 l 69 0 l 69 931 l 219 931 l 219 135 l 793 135 l 793 0 z "},"M":{"ha":1258,"x_min":69,"x_max":1189,"o":"m 219 0 l 69 0 l 69 931 l 274 931 l 542 392 l 626 199 l 638 199 l 719 392 l 985 931 l 1189 931 l 1189 0 l 1039 0 l 1039 571 l 1044 706 l 1033 706 l 976 571 l 719 56 l 539 56 l 282 571 l 225 706 l 214 706 l 219 571 l 219 0 z "},"N":{"ha":992,"x_min":69,"x_max":922,"o":"m 219 0 l 69 0 l 69 931 l 231 931 l 647 386 l 768 213 l 779 213 l 772 381 l 772 931 l 922 931 l 922 0 l 761 0 l 342 543 l 225 707 l 214 707 l 219 546 l 219 0 z "},"O":{"ha":1054,"x_min":42,"x_max":1013,"o":"m 526 -14 q 174 117 307 -14 q 42 465 42 249 q 174 813 42 682 q 526 944 307 944 q 880 814 747 944 q 1013 465 1013 683 q 880 117 1013 247 q 526 -14 747 -14 m 280 211 q 320 171 280 211 q 526 131 360 131 q 774 212 693 131 q 854 465 854 293 q 774 720 854 639 q 526 801 693 801 q 280 720 360 801 q 200 465 200 639 q 280 211 200 292 z "},"P":{"ha":894,"x_min":69,"x_max":874,"o":"m 219 0 l 69 0 l 69 931 l 525 931 q 778 844 683 931 q 874 606 874 758 q 778 367 874 454 q 525 281 683 281 l 219 281 l 219 0 m 511 796 l 219 796 l 219 415 l 511 415 q 672 460 619 415 q 724 606 724 504 q 672 751 724 707 q 511 796 619 796 z "},"Q":{"ha":1054,"x_min":42,"x_max":1013,"o":"m 832 -196 l 643 -196 l 508 -14 q 169 123 296 -7 q 42 465 42 253 q 174 813 42 682 q 526 944 307 944 q 880 814 747 944 q 1013 465 1013 683 q 922 165 1013 286 q 671 3 831 43 l 832 -196 m 280 211 q 320 171 280 211 q 526 131 360 131 q 774 212 693 131 q 854 465 854 293 q 774 720 854 639 q 526 801 693 801 q 280 720 360 801 q 200 465 200 639 q 280 211 200 292 z "},"R":{"ha":933,"x_min":69,"x_max":913,"o":"m 219 0 l 69 0 l 69 931 l 553 931 q 803 858 713 931 q 894 657 894 786 q 822 474 894 542 q 618 399 750 406 l 618 389 q 699 347 668 375 q 757 269 729 319 l 913 0 l 740 0 l 592 257 q 517 338 558 315 q 390 361 475 361 l 219 361 l 219 0 m 219 796 l 219 476 l 551 476 q 693 513 647 476 q 739 636 739 550 q 693 758 739 719 q 551 796 647 796 l 219 796 z "},"S":{"ha":888,"x_min":39,"x_max":850,"o":"m 460 -14 q 148 70 256 -14 q 40 304 40 154 l 40 313 l 190 313 l 190 290 q 251 164 190 204 q 460 124 311 124 q 645 153 590 124 q 700 250 700 183 q 663 338 700 308 q 535 383 626 367 l 307 421 q 39 674 39 468 q 138 865 39 786 q 439 944 238 944 q 735 857 635 944 q 835 626 835 769 l 835 618 l 686 618 l 686 636 q 626 765 686 724 q 425 807 567 807 q 244 776 300 807 q 189 682 189 746 q 224 597 189 624 q 346 551 260 569 l 572 513 q 850 258 850 463 q 752 65 850 143 q 460 -14 654 -14 z "},"T":{"ha":915,"x_min":17,"x_max":897,"o":"m 532 0 l 383 0 l 383 796 l 17 796 l 17 931 l 897 931 l 897 796 l 532 796 l 532 0 z "},"U":{"ha":1001,"x_min":64,"x_max":938,"o":"m 823 91 q 766 39 823 91 q 500 -14 708 -14 q 178 91 292 -14 q 64 386 64 196 l 64 931 l 213 931 l 213 396 q 280 193 213 256 q 500 131 347 131 q 720 193 653 131 q 788 396 788 256 l 788 931 l 938 931 l 938 386 q 823 91 938 196 z "},"V":{"ha":994,"x_min":-7,"x_max":1000,"o":"m 603 0 l 390 0 l -7 931 l 171 931 l 493 151 l 504 151 l 824 931 l 1000 931 l 603 0 z "},"W":{"ha":1471,"x_min":19,"x_max":1451,"o":"m 486 0 l 265 0 l 19 931 l 186 931 l 338 342 l 379 144 l 390 144 l 440 342 l 628 931 l 846 931 l 1046 342 l 1099 144 l 1110 144 l 1149 342 l 1288 931 l 1451 931 l 1218 0 l 997 0 l 810 542 l 742 781 l 729 781 l 663 542 l 486 0 z "},"X":{"ha":999,"x_min":0,"x_max":999,"o":"m 194 0 l 0 0 l 375 463 l 375 474 l 0 931 l 194 931 l 497 564 l 508 564 l 804 931 l 999 931 l 624 472 l 624 461 l 999 0 l 804 0 l 503 374 l 492 374 l 194 0 z "},"Y":{"ha":950,"x_min":-10,"x_max":961,"o":"m 547 0 l 399 0 l 399 321 l -10 931 l 174 931 l 393 600 l 471 482 l 482 482 l 558 600 l 776 931 l 961 931 l 547 318 l 547 0 z "},"Z":{"ha":935,"x_min":46,"x_max":889,"o":"m 889 0 l 46 0 l 46 135 l 653 785 l 653 796 l 64 796 l 64 931 l 874 931 l 874 796 l 256 146 l 256 135 l 889 135 l 889 0 z "},"[":{"ha":371,"x_min":69,"x_max":357,"o":"m 357 -83 l 69 -83 l 69 1014 l 357 1014 l 357 889 l 210 889 l 210 42 l 357 42 l 357 -83 z "},"\\":{"ha":604,"x_min":-28,"x_max":632,"o":"m 632 -28 l 472 -28 l -28 958 l 132 958 l 632 -28 z "},"]":{"ha":388,"x_min":3,"x_max":290,"o":"m 3 42 l 150 42 l 150 889 l 3 889 l 3 1014 l 290 1014 l 290 -83 l 3 -83 l 3 42 z "},"^":{"ha":676,"x_min":28,"x_max":649,"o":"m 167 389 l 28 389 l 250 931 l 428 931 l 649 389 l 510 389 l 344 794 l 333 794 l 167 389 z "},"_":{"ha":528,"x_min":14,"x_max":514,"o":"m 514 -108 l 14 -108 l 14 0 l 514 0 l 514 -108 z "},"a":{"ha":786,"x_min":39,"x_max":722,"o":"m 272 -14 q 101 34 164 -14 q 39 167 39 82 q 261 344 39 319 l 575 378 l 575 418 q 534 538 575 503 q 393 572 493 572 q 249 538 296 572 q 203 429 203 504 l 203 424 l 54 424 l 54 429 q 149 627 54 550 q 404 704 243 704 q 642 627 563 704 q 722 419 722 550 l 722 0 l 585 0 l 585 172 l 575 172 q 468 35 547 85 q 272 -14 389 -14 m 189 176 q 313 94 189 94 q 505 142 435 94 q 575 289 575 190 l 304 258 q 216 233 243 250 q 189 176 189 215 z "},"b":{"ha":876,"x_min":69,"x_max":842,"o":"m 207 0 l 69 0 l 69 931 l 219 931 l 219 503 l 228 503 q 322 649 250 594 q 513 704 393 704 q 756 607 669 704 q 842 344 842 510 q 753 84 842 182 q 504 -14 665 -14 q 313 41 386 -14 q 217 199 239 96 l 207 199 l 207 0 m 219 338 q 281 177 219 231 q 457 124 343 124 q 633 174 575 124 q 692 344 692 225 q 633 517 692 465 q 460 568 575 568 q 219 349 219 568 l 219 338 z "},"c":{"ha":818,"x_min":42,"x_max":776,"o":"m 418 -14 q 145 85 249 -14 q 42 344 42 185 q 144 606 42 507 q 418 704 247 704 q 676 624 575 704 q 776 415 776 543 l 776 401 l 628 401 l 628 410 q 415 569 628 569 q 245 514 300 569 q 190 344 190 458 q 245 176 190 232 q 415 121 300 121 q 628 281 628 121 l 628 290 l 776 290 l 776 275 q 676 67 776 147 q 418 -14 575 -14 z "},"d":{"ha":876,"x_min":35,"x_max":807,"o":"m 374 -14 q 124 84 213 -14 q 35 344 35 182 q 122 606 35 508 q 364 704 208 704 q 554 649 482 704 q 649 503 626 594 l 657 503 l 657 931 l 807 931 l 807 0 l 669 0 l 669 199 l 660 199 q 564 41 638 96 q 374 -14 490 -14 m 186 344 q 244 174 186 225 q 419 124 303 124 q 594 178 532 124 q 657 338 657 232 l 657 349 q 417 568 657 568 q 244 517 303 568 q 186 344 186 465 z "},"e":{"ha":817,"x_min":42,"x_max":774,"o":"m 417 -14 q 143 80 244 -14 q 42 344 42 174 q 144 606 42 507 q 414 704 246 704 q 676 617 578 704 q 774 376 774 531 q 768 311 774 339 l 182 311 q 241 158 186 208 q 413 107 296 107 q 617 236 617 107 l 617 247 l 767 247 l 767 235 q 669 56 767 125 q 417 -14 571 -14 m 411 586 q 183 394 196 586 l 632 394 l 632 397 q 411 586 632 586 z "},"f":{"ha":533,"x_min":18,"x_max":519,"o":"m 272 0 l 122 0 l 122 565 l 18 565 l 18 690 l 124 690 q 221 867 136 804 q 451 931 306 931 l 519 931 l 519 819 l 428 819 q 303 791 342 819 q 269 690 264 763 l 519 690 l 519 565 l 272 565 l 272 0 z "},"g":{"ha":872,"x_min":42,"x_max":803,"o":"m 369 63 q 129 150 217 63 q 42 383 42 238 q 133 617 42 529 q 379 704 224 704 q 564 656 489 704 q 657 518 639 607 l 665 518 l 665 690 l 803 690 l 803 81 q 706 -169 803 -87 q 432 -250 608 -250 q 181 -181 276 -250 q 86 13 86 -111 l 235 13 q 282 -94 235 -62 q 440 -125 329 -125 q 607 -83 560 -125 q 654 72 654 -42 l 654 242 l 644 242 q 554 111 625 160 q 369 63 483 63 m 251 530 q 222 508 251 530 q 193 383 193 486 q 250 236 193 281 q 418 192 307 192 q 594 239 533 192 q 654 378 654 286 l 654 397 q 594 528 654 483 q 422 574 533 574 q 251 530 308 574 z "},"h":{"ha":861,"x_min":69,"x_max":796,"o":"m 219 0 l 69 0 l 69 931 l 219 931 l 219 479 l 228 479 q 318 640 247 576 q 513 704 389 704 q 723 624 650 704 q 796 411 796 543 l 796 0 l 647 0 l 647 375 q 599 524 647 479 q 442 569 550 569 q 272 510 324 569 q 219 335 219 450 l 219 0 z "},"i":{"ha":289,"x_min":69,"x_max":219,"o":"m 219 771 l 69 771 l 69 931 l 219 931 l 219 771 m 219 0 l 69 0 l 69 690 l 219 690 l 219 0 z "},"j":{"ha":290,"x_min":-67,"x_max":221,"o":"m 221 771 l 71 771 l 71 931 l 221 931 l 221 771 m -24 -236 l -67 -236 l -67 -121 l -19 -121 q 71 -35 71 -121 l 71 690 l 221 690 l 221 -8 q 157 -183 221 -131 q -24 -236 93 -236 z "},"k":{"ha":803,"x_min":69,"x_max":799,"o":"m 219 0 l 69 0 l 69 931 l 219 931 l 219 417 l 417 417 l 624 690 l 799 690 l 539 358 l 797 0 l 621 0 l 417 282 l 219 282 l 219 0 z "},"l":{"ha":289,"x_min":69,"x_max":219,"o":"m 219 0 l 69 0 l 69 931 l 219 931 l 219 0 z "},"m":{"ha":1356,"x_min":69,"x_max":1290,"o":"m 219 0 l 69 0 l 69 690 l 207 690 l 207 482 l 215 482 q 295 642 231 579 q 481 704 360 704 q 660 642 594 704 q 742 476 726 581 l 750 476 q 832 640 765 575 q 1021 704 899 704 q 1221 624 1151 704 q 1290 415 1290 544 l 1290 0 l 1142 0 l 1142 375 q 1098 524 1142 478 q 954 569 1054 569 q 800 515 846 569 q 754 342 754 460 l 754 0 l 606 0 l 606 375 q 563 524 606 478 q 419 569 519 569 q 265 515 311 569 q 219 342 219 460 l 219 0 z "},"n":{"ha":854,"x_min":69,"x_max":790,"o":"m 219 0 l 69 0 l 69 690 l 207 690 l 207 476 l 217 476 q 307 638 233 572 q 504 704 381 704 q 716 623 642 704 q 790 415 790 542 l 790 0 l 640 0 l 640 375 q 592 522 640 474 q 439 569 544 569 q 219 342 219 569 l 219 0 z "},"o":{"ha":846,"x_min":39,"x_max":807,"o":"m 701 85 q 648 36 701 85 q 422 -14 594 -14 q 144 85 250 -14 q 39 344 39 185 q 144 605 39 506 q 422 704 250 704 q 701 605 594 704 q 807 344 807 506 q 701 85 807 185 m 422 119 q 603 176 546 119 q 660 344 660 232 q 603 515 660 457 q 422 572 546 572 q 186 344 186 572 q 243 176 186 232 q 422 119 300 119 z "},"p":{"ha":876,"x_min":69,"x_max":842,"o":"m 219 -236 l 69 -236 l 69 690 l 207 690 l 207 499 l 219 499 q 314 650 240 596 q 507 704 388 704 q 753 606 665 704 q 842 344 842 508 q 754 83 842 181 q 508 -14 667 -14 q 319 42 393 -14 q 225 194 246 97 l 219 194 l 219 -236 m 219 333 q 282 176 219 229 q 457 122 344 122 q 633 174 574 122 q 692 344 692 225 q 633 515 692 464 q 460 567 574 567 q 219 346 219 567 l 219 333 z "},"q":{"ha":876,"x_min":35,"x_max":807,"o":"m 368 -14 q 122 83 210 -14 q 35 344 35 181 q 123 606 35 508 q 369 704 211 704 q 563 650 489 704 q 657 499 636 596 l 669 499 l 669 690 l 807 690 l 807 -236 l 657 -236 l 657 194 l 653 194 q 556 42 631 97 q 368 -14 482 -14 m 244 515 q 215 490 244 515 q 186 344 186 464 q 244 174 186 225 q 419 122 303 122 q 594 176 532 122 q 657 333 657 229 l 657 346 q 417 567 657 567 q 244 515 303 567 z "},"r":{"ha":704,"x_min":69,"x_max":679,"o":"m 219 0 l 69 0 l 69 690 l 207 690 l 207 504 l 217 504 q 293 649 233 593 q 454 704 353 704 q 622 635 565 704 q 679 461 679 567 l 679 371 l 531 371 l 531 432 q 497 542 531 507 q 386 576 463 576 q 259 529 299 576 q 219 388 219 482 l 219 0 z "},"s":{"ha":757,"x_min":40,"x_max":718,"o":"m 396 -14 q 138 50 229 -14 q 47 233 47 114 l 47 238 l 197 238 l 197 226 q 242 133 197 160 q 396 107 286 107 q 533 128 494 107 q 571 196 571 149 q 542 256 571 238 q 439 285 514 274 l 250 310 q 40 497 40 336 q 124 647 40 590 q 363 704 207 704 q 613 640 524 704 q 701 456 701 576 l 701 451 l 553 451 l 553 460 q 510 555 553 525 q 358 585 468 585 q 226 563 265 585 q 188 492 188 542 q 215 433 188 451 q 319 404 242 414 l 479 382 q 660 322 603 367 q 718 192 718 276 q 631 41 718 96 q 396 -14 543 -14 z "},"t":{"ha":547,"x_min":7,"x_max":522,"o":"m 522 0 l 364 0 q 124 233 124 0 l 124 565 l 7 565 l 7 690 l 124 690 l 124 842 l 272 842 l 272 690 l 522 690 l 522 565 l 272 565 l 272 242 q 301 158 272 181 q 397 135 331 135 l 522 135 l 522 0 z "},"u":{"ha":861,"x_min":68,"x_max":794,"o":"m 357 -14 q 142 67 217 -14 q 68 275 68 149 l 68 690 l 217 690 l 217 315 q 266 169 217 217 q 422 121 315 121 q 646 349 646 121 l 646 690 l 794 690 l 794 0 l 657 0 l 657 214 l 649 214 q 556 51 631 117 q 357 -14 482 -14 z "},"v":{"ha":844,"x_min":7,"x_max":838,"o":"m 513 0 l 329 0 l 7 690 l 172 690 l 418 146 l 429 146 l 675 690 l 838 690 l 513 0 z "},"w":{"ha":1224,"x_min":7,"x_max":1217,"o":"m 400 0 l 214 0 l 7 690 l 163 690 l 278 299 l 310 121 l 321 121 l 372 313 l 517 690 l 708 690 l 854 313 l 906 121 l 917 121 l 949 299 l 1064 690 l 1217 690 l 1007 0 l 821 0 l 669 397 l 617 567 l 606 567 l 553 397 l 400 0 z "},"x":{"ha":835,"x_min":4,"x_max":831,"o":"m 183 0 l 4 0 l 301 342 l 301 350 l 4 690 l 186 690 l 415 429 l 424 429 l 650 690 l 831 690 l 533 353 l 533 344 l 831 0 l 649 0 l 419 264 l 410 264 l 183 0 z "},"y":{"ha":821,"x_min":0,"x_max":817,"o":"m 181 -236 l 82 -236 l 82 -100 l 217 -100 q 285 -86 263 -100 q 324 -36 308 -72 l 340 0 l 0 690 l 168 690 l 344 324 l 413 158 l 424 158 l 489 325 l 651 690 l 817 690 l 457 -75 q 352 -201 415 -165 q 181 -236 289 -236 z "},"z":{"ha":779,"x_min":32,"x_max":747,"o":"m 747 0 l 32 0 l 32 129 l 383 443 l 529 553 l 529 564 l 383 558 l 53 558 l 53 690 l 726 690 l 726 561 l 350 231 l 222 136 l 222 125 l 350 132 l 747 132 l 747 0 z "},"{":{"ha":424,"x_min":28,"x_max":403,"o":"m 403 -83 l 375 -83 q 208 -28 264 -83 q 153 124 153 26 l 153 321 q 136 376 153 361 q 75 392 119 392 l 28 392 l 28 539 l 75 539 q 136 554 119 539 q 153 610 153 569 l 153 807 q 208 959 153 904 q 375 1014 264 1014 l 403 1014 l 403 869 l 368 869 q 309 853 326 869 q 292 792 292 836 l 292 601 q 165 471 292 471 l 165 460 q 292 329 292 460 l 292 139 q 309 78 292 94 q 368 61 326 61 l 403 61 l 403 -83 z "},"|":{"ha":279,"x_min":69,"x_max":208,"o":"m 208 -139 l 69 -139 l 69 1069 l 208 1069 l 208 -139 z "},"}":{"ha":426,"x_min":24,"x_max":399,"o":"m 24 1014 l 51 1014 q 218 959 163 1014 q 274 807 274 904 l 274 610 q 290 554 274 569 q 351 539 307 539 l 399 539 l 399 392 l 351 392 q 290 376 307 392 q 274 321 274 361 l 274 124 q 218 -28 274 26 q 51 -83 163 -83 l 24 -83 l 24 61 l 58 61 q 117 78 100 61 q 135 139 135 94 l 135 329 q 261 460 135 460 l 261 471 q 135 601 135 471 l 135 792 q 117 853 135 836 q 58 869 100 869 l 24 869 l 24 1014 z "},"~":{"ha":779,"x_min":78,"x_max":707,"o":"m 204 342 l 78 342 l 78 432 q 221 590 78 590 q 354 539 271 590 l 433 507 q 460 492 440 503 q 490 478 481 482 q 513 469 499 474 q 538 465 526 465 q 581 518 581 465 l 581 582 l 707 582 l 707 488 q 575 338 707 338 q 424 386 521 338 l 339 422 q 250 463 279 463 q 204 406 204 463 l 204 342 z "}," ":{"ha":238,"x_min":0,"x_max":0,"o":""},"¡":{"ha":288,"x_min":49,"x_max":239,"o":"m 58 694 l 229 694 l 229 489 l 58 489 l 58 694 m 71 389 l 217 389 q 228 115 217 318 q 239 -139 239 -89 l 239 -236 l 49 -236 l 49 -139 q 60 115 49 -89 q 71 389 71 319 z "},"¢":{"ha":804,"x_min":42,"x_max":776,"o":"m 478 -139 l 339 -139 l 339 -7 q 122 110 203 15 q 42 344 42 206 q 122 581 42 486 q 339 699 201 675 l 339 833 l 478 833 l 478 701 q 694 608 611 686 q 776 415 776 531 l 776 401 l 628 401 l 628 410 q 415 569 628 569 q 245 514 300 569 q 190 344 190 458 q 245 176 190 232 q 415 121 300 121 q 628 281 628 121 l 628 290 l 776 290 l 776 275 q 694 82 776 160 q 478 -11 611 4 l 478 -139 z "},"£":{"ha":910,"x_min":42,"x_max":875,"o":"m 617 382 l 356 382 q 385 276 385 319 q 357 194 385 228 q 288 144 329 161 l 288 135 l 875 135 l 875 0 l 42 0 l 42 135 l 104 135 q 215 165 172 135 q 258 246 258 196 q 213 367 258 289 l 203 382 l 42 382 l 42 507 l 132 507 q 89 671 89 593 q 189 867 89 790 q 478 944 289 944 q 772 856 678 944 q 867 622 867 767 l 867 593 l 719 593 l 719 621 q 666 764 719 719 q 476 808 613 808 q 291 769 344 808 q 238 653 238 729 q 286 507 238 599 l 617 507 l 617 382 z "},"¥":{"ha":978,"x_min":1,"x_max":976,"o":"m 564 0 l 415 0 l 415 246 l 25 246 l 25 371 l 381 371 l 304 483 l 25 483 l 25 608 l 219 608 l 1 931 l 194 931 l 372 654 l 486 454 l 497 454 l 610 654 l 788 931 l 976 931 l 758 608 l 953 608 l 953 483 l 674 483 l 597 371 l 953 371 l 953 246 l 564 246 l 564 0 z "},"¦":{"ha":278,"x_min":69,"x_max":208,"o":"m 208 521 l 69 521 l 69 1069 l 208 1069 l 208 521 m 208 -139 l 69 -139 l 69 410 l 208 410 l 208 -139 z "},"§":{"ha":732,"x_min":29,"x_max":707,"o":"m 386 -14 q 135 51 226 -14 q 44 235 44 117 l 44 239 l 194 239 l 194 228 q 235 132 194 161 q 390 103 275 103 q 521 123 482 103 q 560 188 560 143 q 532 240 560 222 q 436 268 504 258 l 224 299 q 29 451 29 326 q 68 541 29 506 q 175 585 107 576 l 175 593 q 70 644 111 606 q 29 747 29 682 q 114 892 29 838 q 343 947 199 947 q 598 882 506 947 q 690 700 690 817 l 690 696 l 542 696 l 542 706 q 499 801 542 772 q 339 831 457 831 q 213 810 250 831 q 175 746 175 790 q 202 692 175 708 q 300 665 229 675 l 529 633 q 707 490 707 611 q 667 394 707 432 q 558 349 628 356 l 558 340 q 665 288 622 326 q 707 186 707 250 q 621 41 707 96 q 386 -14 535 -14 m 286 396 l 399 381 q 560 454 560 356 q 534 508 560 490 q 449 535 508 526 l 333 550 q 175 478 175 571 q 200 423 175 440 q 286 396 225 406 z "},"©":{"ha":1064,"x_min":35,"x_max":1029,"o":"m 894 126 q 826 61 894 126 q 532 -3 758 -3 q 170 126 306 -3 q 35 465 35 254 q 170 805 35 676 q 532 933 306 933 q 894 805 758 933 q 1029 465 1029 676 q 894 126 1029 254 m 245 193 q 291 149 245 193 q 532 106 336 106 q 818 193 728 106 q 908 465 908 281 q 818 738 908 650 q 532 825 728 825 q 245 738 336 825 q 154 465 154 650 q 245 193 154 281 m 536 214 q 338 283 413 214 q 264 465 264 353 q 338 648 264 579 q 536 717 413 717 q 721 660 649 717 q 793 515 793 603 l 793 504 l 681 504 l 681 513 q 536 614 681 614 q 417 579 457 614 q 376 465 376 544 q 417 351 376 386 q 536 317 457 317 q 681 418 681 317 l 681 426 l 793 426 l 793 415 q 721 271 793 328 q 536 214 649 214 z "},"ª":{"ha":303,"x_min":42,"x_max":261,"o":"m 119 728 q 42 783 42 728 q 114 839 42 831 l 199 849 l 199 854 q 189 884 199 875 q 153 893 179 893 q 117 885 126 893 q 108 860 108 878 l 108 858 l 46 858 l 46 861 q 76 922 46 899 q 157 944 106 944 q 261 850 261 944 l 261 732 l 204 732 l 204 771 l 200 771 q 119 728 185 728 m 103 788 q 136 769 103 769 q 201 814 201 769 l 126 804 q 103 788 103 800 z "},"«":{"ha":681,"x_min":28,"x_max":639,"o":"m 361 504 l 639 697 l 639 543 l 464 429 l 464 418 l 639 304 l 639 150 l 361 343 l 361 504 m 28 504 l 306 697 l 306 543 l 131 429 l 131 418 l 306 304 l 306 150 l 28 343 l 28 504 z "},"­":{"ha":833,"x_min":42,"x_max":483,"o":"m 483 344 l 42 344 l 42 472 l 483 472 l 483 344 z "},"®":{"ha":558,"x_min":28,"x_max":531,"o":"m 461 537 q 426 505 461 537 q 279 472 392 472 q 97 537 167 472 q 28 704 28 601 q 97 872 28 807 q 279 936 167 936 q 461 872 392 936 q 531 704 531 807 q 461 537 531 601 m 145 578 q 168 558 145 578 q 279 539 190 539 q 413 578 368 539 q 457 704 457 617 q 413 831 457 792 q 279 869 368 869 q 145 831 190 869 q 100 704 100 792 q 145 578 100 617 m 231 610 l 175 610 l 175 804 l 306 804 q 389 743 389 804 q 373 703 389 717 q 333 688 357 689 l 333 685 q 369 651 354 678 l 396 610 l 332 610 l 308 649 q 269 674 296 674 l 231 674 l 231 610 m 231 756 l 231 713 l 307 713 q 333 735 333 713 q 307 756 333 756 l 231 756 z "},"°":{"ha":326,"x_min":29,"x_max":297,"o":"m 260 728 q 242 711 260 728 q 163 693 224 693 q 65 728 101 693 q 29 819 29 764 q 65 910 29 875 q 163 944 101 944 q 260 910 224 944 q 297 819 297 875 q 260 728 297 764 m 163 761 q 225 819 225 761 q 163 876 225 876 q 101 819 101 876 q 163 761 101 761 z "},"±":{"ha":676,"x_min":49,"x_max":626,"o":"m 626 76 l 49 76 l 49 201 l 274 201 l 274 403 l 49 403 l 49 528 l 274 528 l 274 754 l 403 754 l 403 528 l 626 528 l 626 403 l 403 403 l 403 201 l 626 201 l 626 76 z "},"²":{"ha":511,"x_min":36,"x_max":483,"o":"m 478 472 l 44 472 l 44 514 q 78 622 44 583 q 179 683 111 660 l 296 721 q 357 750 339 736 q 375 789 375 764 q 352 834 375 819 q 267 849 329 849 q 173 830 201 849 q 144 767 144 811 l 144 754 l 36 754 l 36 769 q 97 894 36 843 q 272 944 157 944 q 428 903 374 944 q 483 794 483 861 q 446 707 483 739 q 328 653 408 675 l 213 621 q 151 553 151 599 l 319 567 l 478 567 l 478 472 z "},"³":{"ha":526,"x_min":35,"x_max":499,"o":"m 276 465 q 96 508 157 465 q 35 624 35 550 l 35 639 l 143 639 l 143 628 q 170 575 143 590 q 271 560 197 560 q 361 572 335 560 q 388 621 388 585 q 365 665 388 654 q 288 675 343 675 l 182 675 l 182 747 l 274 747 q 349 757 329 747 q 369 799 369 767 q 347 840 369 826 q 264 853 325 853 q 169 838 194 853 q 143 788 143 822 l 143 778 l 35 778 l 35 788 q 97 901 35 857 q 271 944 160 944 q 424 913 368 944 q 479 822 479 882 q 378 719 479 733 l 378 713 q 499 601 499 701 q 438 500 499 535 q 276 465 376 465 z "},"¶":{"ha":957,"x_min":28,"x_max":888,"o":"m 589 0 l 440 0 l 440 375 l 353 375 q 118 447 208 375 q 28 654 28 518 q 118 860 28 790 q 353 931 208 931 l 589 931 l 589 0 m 888 0 l 738 0 l 738 931 l 888 931 l 888 0 z "},"·":{"ha":288,"x_min":49,"x_max":238,"o":"m 238 347 l 49 347 l 49 563 l 238 563 l 238 347 z "},"¹":{"ha":335,"x_min":10,"x_max":257,"o":"m 257 465 l 147 465 l 147 785 l 10 785 l 10 874 l 57 874 q 121 886 99 874 q 156 931 143 899 l 257 931 l 257 465 z "},"º":{"ha":314,"x_min":42,"x_max":272,"o":"m 241 758 q 225 743 241 758 q 157 728 210 728 q 73 758 104 728 q 42 836 42 789 q 73 914 42 883 q 157 944 104 944 q 241 914 210 944 q 272 836 272 883 q 241 758 272 789 m 103 836 q 103 810 103 836 q 157 785 103 785 q 211 836 211 785 q 157 888 211 888 q 103 836 103 888 z "},"»":{"ha":681,"x_min":42,"x_max":653,"o":"m 319 343 l 42 150 l 42 304 l 215 418 l 215 429 l 42 543 l 42 697 l 319 504 l 319 343 m 653 343 l 375 150 l 375 304 l 549 418 l 549 429 l 375 543 l 375 697 l 653 504 l 653 343 z "},"¼":{"ha":1036,"x_min":28,"x_max":1001,"o":"m 288 465 l 178 465 l 178 785 l 40 785 l 40 874 l 88 874 q 151 886 129 874 q 186 931 172 899 l 288 931 l 288 465 m 174 0 l 28 0 l 818 931 l 964 931 l 174 0 m 915 0 l 806 0 l 806 93 l 507 93 l 507 176 l 788 465 l 915 465 l 915 190 l 1001 190 l 1001 93 l 915 93 l 915 0 m 638 190 l 806 190 l 806 358 l 797 358 l 638 200 l 638 190 z "},"½":{"ha":1100,"x_min":28,"x_max":1072,"o":"m 288 465 l 178 465 l 178 785 l 40 785 l 40 874 l 88 874 q 151 886 129 874 q 186 931 172 899 l 288 931 l 288 465 m 174 0 l 28 0 l 818 931 l 964 931 l 174 0 m 1065 0 l 632 0 l 632 42 q 665 149 632 111 q 767 211 699 188 l 885 249 q 945 278 928 264 q 963 317 963 292 q 940 362 963 347 q 854 376 917 376 q 760 358 789 376 q 732 294 732 339 l 732 282 l 624 282 l 624 297 q 685 422 624 371 q 861 472 746 472 q 1017 431 963 472 q 1072 322 1072 389 q 1035 235 1072 267 q 917 181 997 203 l 800 149 q 740 81 740 126 l 907 94 l 1065 94 l 1065 0 z "},"¾":{"ha":1132,"x_min":35,"x_max":1083,"o":"m 276 465 q 96 508 157 465 q 35 624 35 550 l 35 639 l 143 639 l 143 628 q 170 575 143 590 q 271 560 197 560 q 360 572 333 560 q 386 621 386 585 q 365 665 386 654 q 288 675 343 675 l 182 675 l 182 747 l 272 747 q 348 757 328 747 q 368 799 368 767 q 347 840 368 826 q 264 853 325 853 q 169 838 194 853 q 143 788 143 822 l 143 778 l 35 778 l 35 788 q 97 901 35 857 q 271 944 160 944 q 423 913 368 944 q 478 822 478 882 q 378 719 478 733 l 378 713 q 497 601 497 701 q 437 500 497 535 q 276 465 376 465 m 281 0 l 135 0 l 925 931 l 1071 931 l 281 0 m 997 -1 l 888 -1 l 888 92 l 589 92 l 589 176 l 869 464 l 997 464 l 997 190 l 1083 190 l 1083 92 l 997 92 l 997 -1 m 719 190 l 888 190 l 888 358 l 879 358 l 719 199 l 719 190 z "},"¿":{"ha":813,"x_min":21,"x_max":799,"o":"m 365 694 l 535 694 l 535 489 l 365 489 l 365 694 m 376 392 l 525 392 l 525 344 q 492 247 525 285 q 390 179 458 208 l 292 138 q 198 81 226 108 q 169 8 169 53 q 218 -82 169 -50 q 392 -114 267 -114 q 592 -71 533 -114 q 651 63 651 -28 l 651 103 l 799 103 l 799 71 q 695 -160 799 -69 q 382 -250 592 -250 q 110 -180 200 -250 q 21 3 21 -110 q 72 147 21 94 q 211 239 124 200 l 313 281 q 363 315 350 297 q 376 363 376 332 l 376 392 z "},"À":{"ha":1042,"x_min":0,"x_max":1042,"o":"m 600 1014 l 442 1014 l 213 1190 l 422 1190 l 600 1014 m 167 0 l 0 0 l 415 931 l 626 931 l 1042 0 l 872 0 l 765 242 l 274 242 l 167 0 m 460 660 l 333 376 l 706 376 l 579 660 l 525 792 l 514 792 l 460 660 z "},"Á":{"ha":1042,"x_min":0,"x_max":1042,"o":"m 601 1014 l 443 1014 l 619 1190 l 831 1190 l 601 1014 m 167 0 l 0 0 l 415 931 l 626 931 l 1042 0 l 872 0 l 765 242 l 274 242 l 167 0 m 460 660 l 333 376 l 706 376 l 579 660 l 525 792 l 514 792 l 460 660 z "},"Â":{"ha":1042,"x_min":0,"x_max":1042,"o":"m 413 1014 l 253 1014 l 435 1194 l 607 1194 l 790 1014 l 629 1014 l 526 1118 l 515 1118 l 413 1014 m 167 0 l 0 0 l 415 931 l 626 931 l 1042 0 l 872 0 l 765 242 l 274 242 l 167 0 m 460 660 l 333 376 l 706 376 l 579 660 l 525 792 l 514 792 l 460 660 z "},"Ã":{"ha":1042,"x_min":0,"x_max":1042,"o":"m 396 1022 l 294 1022 l 294 1078 q 406 1203 294 1203 q 513 1167 447 1203 l 547 1147 q 610 1124 585 1124 q 649 1171 649 1124 l 649 1197 l 749 1197 l 749 1143 q 644 1017 749 1017 q 535 1053 594 1017 l 490 1075 q 431 1099 456 1099 q 396 1056 396 1099 l 396 1022 m 167 0 l 0 0 l 415 931 l 626 931 l 1042 0 l 872 0 l 765 242 l 274 242 l 167 0 m 460 660 l 333 376 l 706 376 l 579 660 l 525 792 l 514 792 l 460 660 z "},"Ä":{"ha":1042,"x_min":0,"x_max":1042,"o":"m 722 1014 l 581 1014 l 581 1186 l 722 1186 l 722 1014 m 463 1014 l 319 1014 l 319 1186 l 463 1186 l 463 1014 m 167 0 l 0 0 l 415 931 l 626 931 l 1042 0 l 872 0 l 765 242 l 274 242 l 167 0 m 460 660 l 333 376 l 706 376 l 579 660 l 525 792 l 514 792 l 460 660 z "},"Å":{"ha":1042,"x_min":0,"x_max":1042,"o":"m 167 0 l 0 0 l 400 896 q 339 1021 339 939 q 389 1137 339 1093 q 521 1181 439 1181 q 651 1137 601 1181 q 701 1021 701 1093 q 642 896 701 942 l 1042 0 l 872 0 l 765 242 l 274 242 l 167 0 m 453 968 q 463 960 453 968 q 519 951 472 951 q 586 968 567 951 q 606 1021 606 985 q 586 1072 606 1056 q 519 1089 567 1089 q 453 1072 472 1089 q 433 1021 433 1056 q 453 968 433 985 m 460 660 l 333 376 l 706 376 l 579 660 l 525 792 l 514 792 l 460 660 z "},"Æ":{"ha":1574,"x_min":-6,"x_max":1526,"o":"m 179 0 l -6 0 l 699 931 l 1526 931 l 1526 796 l 931 796 l 931 535 l 1506 535 l 1506 401 l 931 401 l 931 135 l 1526 135 l 1526 0 l 782 0 l 782 242 l 361 242 l 179 0 m 772 786 l 463 376 l 782 376 l 782 786 l 772 786 z "},"Ç":{"ha":1010,"x_min":42,"x_max":968,"o":"m 575 -299 l 451 -299 l 451 -214 l 575 -214 q 613 -185 613 -214 q 575 -154 613 -154 l 461 -154 l 461 -11 q 156 136 269 8 q 42 465 42 264 q 174 813 42 682 q 522 944 306 944 q 844 847 721 944 q 968 583 968 749 l 968 564 l 803 564 l 803 583 q 524 801 803 801 q 280 720 360 801 q 200 465 200 639 q 279 212 200 293 q 524 131 358 131 q 803 349 803 131 l 803 367 l 968 367 l 968 349 q 851 90 968 188 q 544 -14 735 -7 l 544 -71 l 575 -71 q 671 -101 636 -71 q 706 -183 706 -132 q 672 -268 706 -237 q 575 -299 638 -299 z "},"È":{"ha":861,"x_min":69,"x_max":814,"o":"m 519 1014 l 361 1014 l 132 1190 l 343 1190 l 519 1014 m 814 0 l 69 0 l 69 931 l 814 931 l 814 796 l 219 796 l 219 535 l 793 535 l 793 401 l 219 401 l 219 135 l 814 135 l 814 0 z "},"É":{"ha":861,"x_min":69,"x_max":814,"o":"m 521 1014 l 363 1014 l 540 1190 l 750 1190 l 521 1014 m 814 0 l 69 0 l 69 931 l 814 931 l 814 796 l 219 796 l 219 535 l 793 535 l 793 401 l 219 401 l 219 135 l 814 135 l 814 0 z "},"Ê":{"ha":861,"x_min":69,"x_max":814,"o":"m 332 1014 l 172 1014 l 354 1194 l 528 1194 l 710 1014 l 550 1014 l 447 1118 l 436 1118 l 332 1014 m 814 0 l 69 0 l 69 931 l 814 931 l 814 796 l 219 796 l 219 535 l 793 535 l 793 401 l 219 401 l 219 135 l 814 135 l 814 0 z "},"Ë":{"ha":861,"x_min":69,"x_max":814,"o":"m 643 1014 l 500 1014 l 500 1186 l 643 1186 l 643 1014 m 383 1014 l 240 1014 l 240 1186 l 383 1186 l 383 1014 m 814 0 l 69 0 l 69 931 l 814 931 l 814 796 l 219 796 l 219 535 l 793 535 l 793 401 l 219 401 l 219 135 l 814 135 l 814 0 z "},"Ì":{"ha":289,"x_min":-164,"x_max":224,"o":"m 224 1014 l 64 1014 l -164 1190 l 46 1190 l 224 1014 m 219 0 l 69 0 l 69 931 l 219 931 l 219 0 z "},"Í":{"ha":289,"x_min":67,"x_max":454,"o":"m 225 1014 l 67 1014 l 243 1190 l 454 1190 l 225 1014 m 219 0 l 69 0 l 69 931 l 219 931 l 219 0 z "},"Î":{"ha":289,"x_min":-124,"x_max":414,"o":"m 35 1014 l -124 1014 l 58 1194 l 231 1194 l 414 1014 l 253 1014 l 150 1118 l 139 1118 l 35 1014 m 219 0 l 69 0 l 69 931 l 219 931 l 219 0 z "},"Ï":{"ha":289,"x_min":-57,"x_max":346,"o":"m 346 1014 l 203 1014 l 203 1186 l 346 1186 l 346 1014 m 86 1014 l -57 1014 l -57 1186 l 86 1186 l 86 1014 m 219 0 l 69 0 l 69 931 l 219 931 l 219 0 z "},"Ð":{"ha":1093,"x_min":14,"x_max":1050,"o":"m 579 0 l 156 0 l 156 399 l 14 399 l 14 532 l 156 532 l 156 931 l 579 931 q 923 806 796 931 q 1050 465 1050 681 q 923 125 1050 250 q 579 0 796 0 m 608 399 l 304 399 l 304 135 l 579 135 q 817 212 743 135 q 892 465 892 289 q 817 719 892 642 q 579 796 743 796 l 304 796 l 304 532 l 608 532 l 608 399 z "},"Ñ":{"ha":992,"x_min":69,"x_max":922,"o":"m 371 1022 l 269 1022 l 269 1078 q 381 1203 269 1203 q 488 1167 422 1203 l 522 1147 q 585 1124 560 1124 q 624 1171 624 1124 l 624 1197 l 724 1197 l 724 1143 q 619 1017 724 1017 q 510 1053 572 1017 l 465 1075 q 406 1099 431 1099 q 371 1056 371 1099 l 371 1022 m 219 0 l 69 0 l 69 931 l 231 931 l 647 386 l 768 213 l 779 213 l 772 381 l 772 931 l 922 931 l 922 0 l 761 0 l 342 543 l 225 707 l 214 707 l 219 546 l 219 0 z "},"Ò":{"ha":1054,"x_min":42,"x_max":1013,"o":"m 606 1014 l 447 1014 l 218 1190 l 429 1190 l 606 1014 m 526 -14 q 174 117 307 -14 q 42 465 42 249 q 174 813 42 682 q 526 944 307 944 q 880 814 747 944 q 1013 465 1013 683 q 880 117 1013 247 q 526 -14 747 -14 m 280 211 q 320 171 280 211 q 526 131 360 131 q 774 212 693 131 q 854 465 854 293 q 774 720 854 639 q 526 801 693 801 q 280 720 360 801 q 200 465 200 639 q 280 211 200 292 z "},"Ó":{"ha":1054,"x_min":42,"x_max":1013,"o":"m 607 1014 l 449 1014 l 626 1190 l 836 1190 l 607 1014 m 526 -14 q 174 117 307 -14 q 42 465 42 249 q 174 813 42 682 q 526 944 307 944 q 880 814 747 944 q 1013 465 1013 683 q 880 117 1013 247 q 526 -14 747 -14 m 280 211 q 320 171 280 211 q 526 131 360 131 q 774 212 693 131 q 854 465 854 293 q 774 720 854 639 q 526 801 693 801 q 280 720 360 801 q 200 465 200 639 q 280 211 200 292 z "},"Ô":{"ha":1054,"x_min":42,"x_max":1013,"o":"m 418 1014 l 258 1014 l 440 1194 l 614 1194 l 796 1014 l 636 1014 l 533 1118 l 522 1118 l 418 1014 m 526 -14 q 174 117 307 -14 q 42 465 42 249 q 174 813 42 682 q 526 944 307 944 q 880 814 747 944 q 1013 465 1013 683 q 880 117 1013 247 q 526 -14 747 -14 m 280 211 q 320 171 280 211 q 526 131 360 131 q 774 212 693 131 q 854 465 854 293 q 774 720 854 639 q 526 801 693 801 q 280 720 360 801 q 200 465 200 639 q 280 211 200 292 z "},"Õ":{"ha":1054,"x_min":42,"x_max":1013,"o":"m 401 1022 l 300 1022 l 300 1078 q 411 1203 300 1203 q 518 1167 453 1203 l 554 1147 q 617 1124 592 1124 q 654 1171 654 1124 l 654 1197 l 756 1197 l 756 1143 q 729 1051 756 1085 q 650 1017 703 1017 q 540 1053 603 1017 l 497 1075 q 436 1099 460 1099 q 401 1056 401 1099 l 401 1022 m 526 -14 q 174 117 307 -14 q 42 465 42 249 q 174 813 42 682 q 526 944 307 944 q 880 814 747 944 q 1013 465 1013 683 q 880 117 1013 247 q 526 -14 747 -14 m 280 211 q 320 171 280 211 q 526 131 360 131 q 774 212 693 131 q 854 465 854 293 q 774 720 854 639 q 526 801 693 801 q 280 720 360 801 q 200 465 200 639 q 280 211 200 292 z "},"Ö":{"ha":1054,"x_min":42,"x_max":1013,"o":"m 729 1014 l 586 1014 l 586 1186 l 729 1186 l 729 1014 m 468 1014 l 326 1014 l 326 1186 l 468 1186 l 468 1014 m 526 -14 q 174 117 307 -14 q 42 465 42 249 q 174 813 42 682 q 526 944 307 944 q 880 814 747 944 q 1013 465 1013 683 q 880 117 1013 247 q 526 -14 747 -14 m 280 211 q 320 171 280 211 q 526 131 360 131 q 774 212 693 131 q 854 465 854 293 q 774 720 854 639 q 526 801 693 801 q 280 720 360 801 q 200 465 200 639 q 280 211 200 292 z "},"×":{"ha":660,"x_min":69,"x_max":590,"o":"m 590 297 l 499 206 l 328 375 l 160 207 l 71 294 l 240 464 l 69 633 l 161 725 l 332 556 l 500 724 l 589 636 l 419 467 l 590 297 z "},"Ø":{"ha":1054,"x_min":38,"x_max":1013,"o":"m 526 -14 q 218 79 343 -14 l 113 -26 l 38 51 l 140 156 q 42 465 42 278 q 174 813 42 682 q 526 944 307 944 q 833 853 707 944 l 936 956 l 1011 878 l 913 778 q 1013 465 1013 651 q 880 117 1013 247 q 526 -14 747 -14 m 200 465 q 244 260 200 335 l 733 751 q 526 801 656 801 q 280 720 360 801 q 200 465 200 639 m 526 131 q 774 212 693 131 q 854 465 854 293 q 808 674 854 597 l 318 181 q 526 131 394 131 z "},"Ù":{"ha":1001,"x_min":64,"x_max":938,"o":"m 579 1014 l 421 1014 l 192 1190 l 403 1190 l 579 1014 m 823 91 q 766 39 823 91 q 500 -14 708 -14 q 178 91 292 -14 q 64 386 64 196 l 64 931 l 213 931 l 213 396 q 280 193 213 256 q 500 131 347 131 q 720 193 653 131 q 788 396 788 256 l 788 931 l 938 931 l 938 386 q 823 91 938 196 z "},"Ú":{"ha":1001,"x_min":64,"x_max":938,"o":"m 581 1014 l 422 1014 l 599 1190 l 810 1190 l 581 1014 m 823 91 q 766 39 823 91 q 500 -14 708 -14 q 178 91 292 -14 q 64 386 64 196 l 64 931 l 213 931 l 213 396 q 280 193 213 256 q 500 131 347 131 q 720 193 653 131 q 788 396 788 256 l 788 931 l 938 931 l 938 386 q 823 91 938 196 z "},"Û":{"ha":1001,"x_min":64,"x_max":938,"o":"m 392 1014 l 232 1014 l 414 1194 l 586 1194 l 769 1014 l 610 1014 l 506 1118 l 494 1118 l 392 1014 m 823 91 q 766 39 823 91 q 500 -14 708 -14 q 178 91 292 -14 q 64 386 64 196 l 64 931 l 213 931 l 213 396 q 280 193 213 256 q 500 131 347 131 q 720 193 653 131 q 788 396 788 256 l 788 931 l 938 931 l 938 386 q 823 91 938 196 z "},"Ü":{"ha":1001,"x_min":64,"x_max":938,"o":"m 701 1014 l 560 1014 l 560 1186 l 701 1186 l 701 1014 m 442 1014 l 300 1014 l 300 1186 l 442 1186 l 442 1014 m 823 91 q 766 39 823 91 q 500 -14 708 -14 q 178 91 292 -14 q 64 386 64 196 l 64 931 l 213 931 l 213 396 q 280 193 213 256 q 500 131 347 131 q 720 193 653 131 q 788 396 788 256 l 788 931 l 938 931 l 938 386 q 823 91 938 196 z "},"Ý":{"ha":950,"x_min":-10,"x_max":961,"o":"m 556 1014 l 397 1014 l 574 1190 l 785 1190 l 556 1014 m 547 0 l 399 0 l 399 321 l -10 931 l 174 931 l 393 600 l 471 482 l 482 482 l 558 600 l 776 931 l 961 931 l 547 318 l 547 0 z "},"Þ":{"ha":901,"x_min":69,"x_max":881,"o":"m 219 0 l 69 0 l 69 931 l 219 931 l 219 793 l 532 793 q 785 706 690 793 q 881 465 881 619 q 785 226 881 313 q 532 139 690 139 l 219 139 l 219 0 m 518 658 l 219 658 l 219 274 l 518 274 q 678 318 626 274 q 731 465 731 363 q 678 613 731 568 q 518 658 626 658 z "},"ß":{"ha":899,"x_min":69,"x_max":878,"o":"m 217 0 l 69 0 l 69 601 q 174 852 69 767 q 483 938 278 938 q 751 872 658 938 q 844 701 844 807 q 788 560 844 615 q 614 494 731 506 l 614 485 q 810 412 742 475 q 878 250 878 349 q 797 65 878 131 q 558 0 717 0 l 338 0 l 338 135 l 542 135 q 685 167 643 135 q 728 276 728 200 q 680 384 728 350 q 535 418 632 418 l 338 418 l 338 543 l 511 543 q 696 668 696 543 q 648 765 696 733 q 474 796 600 796 q 271 753 325 796 q 217 603 217 711 l 217 0 z "},"à":{"ha":786,"x_min":39,"x_max":722,"o":"m 478 778 l 321 778 l 92 958 l 301 958 l 478 778 m 272 -14 q 101 34 164 -14 q 39 167 39 82 q 261 344 39 319 l 575 378 l 575 418 q 534 538 575 503 q 393 572 493 572 q 249 538 296 572 q 203 429 203 504 l 203 424 l 54 424 l 54 429 q 149 627 54 550 q 404 704 243 704 q 642 627 563 704 q 722 419 722 550 l 722 0 l 585 0 l 585 172 l 575 172 q 468 35 547 85 q 272 -14 389 -14 m 189 176 q 313 94 189 94 q 505 142 435 94 q 575 289 575 190 l 304 258 q 216 233 243 250 q 189 176 189 215 z "},"á":{"ha":786,"x_min":39,"x_max":722,"o":"m 476 778 l 319 778 l 497 958 l 707 958 l 476 778 m 272 -14 q 101 34 164 -14 q 39 167 39 82 q 261 344 39 319 l 575 378 l 575 418 q 534 538 575 503 q 393 572 493 572 q 249 538 296 572 q 203 429 203 504 l 203 424 l 54 424 l 54 429 q 149 627 54 550 q 404 704 243 704 q 642 627 563 704 q 722 419 722 550 l 722 0 l 585 0 l 585 172 l 575 172 q 468 35 547 85 q 272 -14 389 -14 m 189 176 q 313 94 189 94 q 505 142 435 94 q 575 289 575 190 l 304 258 q 216 233 243 250 q 189 176 189 215 z "},"â":{"ha":786,"x_min":39,"x_max":722,"o":"m 289 778 l 129 778 l 311 958 l 485 958 l 667 778 l 507 778 l 404 882 l 393 882 l 289 778 m 272 -14 q 101 34 164 -14 q 39 167 39 82 q 261 344 39 319 l 575 378 l 575 418 q 534 538 575 503 q 393 572 493 572 q 249 538 296 572 q 203 429 203 504 l 203 424 l 54 424 l 54 429 q 149 627 54 550 q 404 704 243 704 q 642 627 563 704 q 722 419 722 550 l 722 0 l 585 0 l 585 172 l 575 172 q 468 35 547 85 q 272 -14 389 -14 m 189 176 q 313 94 189 94 q 505 142 435 94 q 575 289 575 190 l 304 258 q 216 233 243 250 q 189 176 189 215 z "},"ã":{"ha":786,"x_min":39,"x_max":722,"o":"m 272 786 l 171 786 l 171 843 q 282 967 171 967 q 389 931 324 967 l 424 911 q 486 888 461 888 q 525 935 525 888 l 525 961 l 625 961 l 625 907 q 521 781 625 781 q 411 817 471 781 l 367 839 q 307 863 329 863 q 272 821 272 863 l 272 786 m 272 -14 q 101 34 164 -14 q 39 167 39 82 q 261 344 39 319 l 575 378 l 575 418 q 534 538 575 503 q 393 572 493 572 q 249 538 296 572 q 203 429 203 504 l 203 424 l 54 424 l 54 429 q 149 627 54 550 q 404 704 243 704 q 642 627 563 704 q 722 419 722 550 l 722 0 l 585 0 l 585 172 l 575 172 q 468 35 547 85 q 272 -14 389 -14 m 189 176 q 313 94 189 94 q 505 142 435 94 q 575 289 575 190 l 304 258 q 216 233 243 250 q 189 176 189 215 z "},"ä":{"ha":786,"x_min":39,"x_max":722,"o":"m 600 778 l 457 778 l 457 950 l 600 950 l 600 778 m 340 778 l 197 778 l 197 950 l 340 950 l 340 778 m 272 -14 q 101 34 164 -14 q 39 167 39 82 q 261 344 39 319 l 575 378 l 575 418 q 534 538 575 503 q 393 572 493 572 q 249 538 296 572 q 203 429 203 504 l 203 424 l 54 424 l 54 429 q 149 627 54 550 q 404 704 243 704 q 642 627 563 704 q 722 419 722 550 l 722 0 l 585 0 l 585 172 l 575 172 q 468 35 547 85 q 272 -14 389 -14 m 189 176 q 313 94 189 94 q 505 142 435 94 q 575 289 575 190 l 304 258 q 216 233 243 250 q 189 176 189 215 z "},"å":{"ha":786,"x_min":39,"x_max":722,"o":"m 399 756 q 296 789 335 756 q 257 878 257 822 q 296 967 257 933 q 399 1000 335 1000 q 500 967 461 1000 q 539 878 539 933 q 500 789 539 822 q 399 756 461 756 m 328 878 q 328 849 328 878 q 399 821 328 821 q 469 878 469 821 q 399 935 469 935 q 328 878 328 935 m 272 -14 q 101 34 164 -14 q 39 167 39 82 q 261 344 39 319 l 575 378 l 575 418 q 534 538 575 503 q 393 572 493 572 q 249 538 296 572 q 203 429 203 504 l 203 424 l 54 424 l 54 429 q 149 627 54 550 q 404 704 243 704 q 642 627 563 704 q 722 419 722 550 l 722 0 l 585 0 l 585 172 l 575 172 q 468 35 547 85 q 272 -14 389 -14 m 189 176 q 313 94 189 94 q 505 142 435 94 q 575 289 575 190 l 304 258 q 216 233 243 250 q 189 176 189 215 z "},"æ":{"ha":1346,"x_min":35,"x_max":1319,"o":"m 279 -14 q 101 34 167 -14 q 35 167 35 82 q 258 346 35 324 l 588 381 l 588 418 q 545 538 588 503 q 399 572 503 572 q 248 538 296 572 q 200 429 200 504 l 200 419 l 50 419 l 50 429 q 144 627 50 550 q 401 704 239 704 q 675 590 594 704 q 960 704 778 704 q 1221 617 1122 704 q 1319 376 1319 531 q 1314 311 1319 353 l 726 311 q 785 158 731 208 q 957 107 840 107 q 1163 236 1163 107 l 1163 247 l 1311 247 l 1311 235 q 1214 56 1311 125 q 963 -14 1117 -14 q 746 38 836 -14 q 617 186 656 89 l 608 186 q 490 38 578 89 q 279 -14 401 -14 m 957 586 q 728 394 740 586 l 1178 394 l 1178 397 q 957 586 1178 586 m 185 176 q 315 94 185 94 q 590 286 576 94 l 590 289 l 300 258 q 213 233 242 251 q 185 176 185 215 z "},"ç":{"ha":818,"x_min":42,"x_max":776,"o":"m 497 -299 l 375 -299 l 375 -214 l 499 -214 q 536 -185 536 -214 q 499 -154 536 -154 l 383 -154 l 383 -12 q 135 95 228 -3 q 42 344 42 193 q 144 606 42 507 q 418 704 247 704 q 676 624 575 704 q 776 415 776 543 l 776 401 l 628 401 l 628 410 q 415 569 628 569 q 245 514 300 569 q 190 344 190 458 q 245 176 190 232 q 415 121 300 121 q 628 281 628 121 l 628 290 l 776 290 l 776 275 q 691 79 776 157 q 468 -11 606 1 l 468 -71 l 497 -71 q 594 -101 560 -71 q 628 -183 628 -132 q 594 -268 628 -237 q 497 -299 560 -299 z "},"è":{"ha":817,"x_min":42,"x_max":774,"o":"m 488 778 l 331 778 l 101 958 l 311 958 l 488 778 m 417 -14 q 143 80 244 -14 q 42 344 42 174 q 144 606 42 507 q 414 704 246 704 q 676 617 578 704 q 774 376 774 531 q 768 311 774 339 l 182 311 q 241 158 186 208 q 413 107 296 107 q 617 236 617 107 l 617 247 l 767 247 l 767 235 q 669 56 767 125 q 417 -14 571 -14 m 411 586 q 183 394 196 586 l 632 394 l 632 397 q 411 586 632 586 z "},"é":{"ha":817,"x_min":42,"x_max":774,"o":"m 486 778 l 329 778 l 507 958 l 717 958 l 486 778 m 417 -14 q 143 80 244 -14 q 42 344 42 174 q 144 606 42 507 q 414 704 246 704 q 676 617 578 704 q 774 376 774 531 q 768 311 774 339 l 182 311 q 241 158 186 208 q 413 107 296 107 q 617 236 617 107 l 617 247 l 767 247 l 767 235 q 669 56 767 125 q 417 -14 571 -14 m 411 586 q 183 394 196 586 l 632 394 l 632 397 q 411 586 632 586 z "},"ê":{"ha":817,"x_min":42,"x_max":774,"o":"m 299 778 l 139 778 l 321 958 l 494 958 l 676 778 l 517 778 l 414 882 l 403 882 l 299 778 m 417 -14 q 143 80 244 -14 q 42 344 42 174 q 144 606 42 507 q 414 704 246 704 q 676 617 578 704 q 774 376 774 531 q 768 311 774 339 l 182 311 q 241 158 186 208 q 413 107 296 107 q 617 236 617 107 l 617 247 l 767 247 l 767 235 q 669 56 767 125 q 417 -14 571 -14 m 411 586 q 183 394 196 586 l 632 394 l 632 397 q 411 586 632 586 z "},"ë":{"ha":817,"x_min":42,"x_max":774,"o":"m 610 778 l 467 778 l 467 950 l 610 950 l 610 778 m 350 778 l 207 778 l 207 950 l 350 950 l 350 778 m 417 -14 q 143 80 244 -14 q 42 344 42 174 q 144 606 42 507 q 414 704 246 704 q 676 617 578 704 q 774 376 774 531 q 768 311 774 339 l 182 311 q 241 158 186 208 q 413 107 296 107 q 617 236 617 107 l 617 247 l 767 247 l 767 235 q 669 56 767 125 q 417 -14 571 -14 m 411 586 q 183 394 196 586 l 632 394 l 632 397 q 411 586 632 586 z "},"ì":{"ha":296,"x_min":-158,"x_max":229,"o":"m 229 778 l 71 778 l -158 958 l 51 958 l 229 778 m 222 0 l 74 0 l 74 694 l 222 694 l 222 0 z "},"í":{"ha":296,"x_min":69,"x_max":457,"o":"m 226 778 l 69 778 l 247 958 l 457 958 l 226 778 m 222 0 l 74 0 l 74 694 l 222 694 l 222 0 z "},"î":{"ha":296,"x_min":-121,"x_max":417,"o":"m 39 778 l -121 778 l 61 958 l 235 958 l 417 778 l 257 778 l 154 882 l 143 882 l 39 778 m 222 0 l 74 0 l 74 694 l 222 694 l 222 0 z "},"ï":{"ha":296,"x_min":-53,"x_max":350,"o":"m 350 778 l 207 778 l 207 950 l 350 950 l 350 778 m 90 778 l -53 778 l -53 950 l 90 950 l 90 778 m 222 0 l 74 0 l 74 694 l 222 694 l 222 0 z "},"ð":{"ha":883,"x_min":7,"x_max":844,"o":"m 406 -14 q 110 69 214 -14 q 7 299 7 153 q 101 514 7 438 q 361 590 196 590 q 569 542 490 590 q 675 410 647 493 l 686 410 q 515 733 681 571 l 249 675 l 232 750 l 446 797 q 258 931 368 863 l 460 931 q 607 832 543 885 l 828 881 l 843 806 l 674 768 q 844 375 844 590 q 735 89 844 192 q 406 -14 626 -14 m 413 131 q 612 172 550 131 q 674 300 674 213 q 413 465 674 465 q 219 425 279 465 q 160 299 160 385 q 219 171 160 211 q 413 131 279 131 z "},"ñ":{"ha":854,"x_min":69,"x_max":790,"o":"m 304 786 l 203 786 l 203 843 q 314 967 203 967 q 421 931 356 967 l 456 911 q 518 888 493 888 q 557 935 557 888 l 557 961 l 657 961 l 657 907 q 631 815 657 849 q 553 781 604 781 q 443 817 503 781 l 399 839 q 339 863 361 863 q 304 821 304 863 l 304 786 m 219 0 l 69 0 l 69 690 l 207 690 l 207 476 l 217 476 q 307 638 233 572 q 504 704 381 704 q 716 623 642 704 q 790 415 790 542 l 790 0 l 640 0 l 640 375 q 592 522 640 474 q 439 569 544 569 q 219 342 219 569 l 219 0 z "},"ò":{"ha":846,"x_min":39,"x_max":807,"o":"m 503 778 l 346 778 l 117 958 l 326 958 l 503 778 m 701 85 q 648 36 701 85 q 422 -14 594 -14 q 144 85 250 -14 q 39 344 39 185 q 144 605 39 506 q 422 704 250 704 q 701 605 594 704 q 807 344 807 506 q 701 85 807 185 m 422 119 q 603 176 546 119 q 660 344 660 232 q 603 515 660 457 q 422 572 546 572 q 186 344 186 572 q 243 176 186 232 q 422 119 300 119 z "},"ó":{"ha":846,"x_min":39,"x_max":807,"o":"m 501 778 l 343 778 l 521 958 l 731 958 l 501 778 m 701 85 q 648 36 701 85 q 422 -14 594 -14 q 144 85 250 -14 q 39 344 39 185 q 144 605 39 506 q 422 704 250 704 q 701 605 594 704 q 807 344 807 506 q 701 85 807 185 m 422 119 q 603 176 546 119 q 660 344 660 232 q 603 515 660 457 q 422 572 546 572 q 186 344 186 572 q 243 176 186 232 q 422 119 300 119 z "},"ô":{"ha":846,"x_min":39,"x_max":807,"o":"m 314 778 l 154 778 l 336 958 l 508 958 l 692 778 l 532 778 l 428 882 l 417 882 l 314 778 m 701 85 q 648 36 701 85 q 422 -14 594 -14 q 144 85 250 -14 q 39 344 39 185 q 144 605 39 506 q 422 704 250 704 q 701 605 594 704 q 807 344 807 506 q 701 85 807 185 m 422 119 q 603 176 546 119 q 660 344 660 232 q 603 515 660 457 q 422 572 546 572 q 186 344 186 572 q 243 176 186 232 q 422 119 300 119 z "},"õ":{"ha":846,"x_min":39,"x_max":807,"o":"m 296 786 l 194 786 l 194 843 q 307 967 194 967 q 414 931 346 967 l 449 911 q 511 888 486 888 q 550 935 550 888 l 550 961 l 650 961 l 650 907 q 624 815 650 849 q 544 781 597 781 q 435 817 497 781 l 392 839 q 332 863 354 863 q 296 821 296 863 l 296 786 m 701 85 q 648 36 701 85 q 422 -14 594 -14 q 144 85 250 -14 q 39 344 39 185 q 144 605 39 506 q 422 704 250 704 q 701 605 594 704 q 807 344 807 506 q 701 85 807 185 m 422 119 q 603 176 546 119 q 660 344 660 232 q 603 515 660 457 q 422 572 546 572 q 186 344 186 572 q 243 176 186 232 q 422 119 300 119 z "},"ö":{"ha":846,"x_min":39,"x_max":807,"o":"m 624 778 l 482 778 l 482 950 l 624 950 l 624 778 m 364 778 l 222 778 l 222 950 l 364 950 l 364 778 m 701 85 q 648 36 701 85 q 422 -14 594 -14 q 144 85 250 -14 q 39 344 39 185 q 144 605 39 506 q 422 704 250 704 q 701 605 594 704 q 807 344 807 506 q 701 85 807 185 m 422 119 q 603 176 546 119 q 660 344 660 232 q 603 515 660 457 q 422 572 546 572 q 186 344 186 572 q 243 176 186 232 q 422 119 300 119 z "},"÷":{"ha":689,"x_min":58,"x_max":636,"o":"m 428 635 l 268 635 l 268 833 l 428 833 l 428 635 m 636 403 l 58 403 l 58 528 l 636 528 l 636 403 m 428 97 l 268 97 l 268 296 l 428 296 l 428 97 z "},"ø":{"ha":846,"x_min":39,"x_max":807,"o":"m 422 -14 q 182 56 279 -14 l 99 -25 l 39 38 l 118 114 q 39 344 39 208 q 144 605 39 506 q 422 704 250 704 q 657 640 558 704 l 733 714 l 792 651 l 722 583 q 807 344 807 488 q 701 85 807 185 q 422 -14 594 -14 m 186 344 q 217 210 186 263 l 560 544 q 422 572 507 572 q 186 344 186 572 m 422 119 q 603 176 546 119 q 660 344 660 232 q 625 489 660 433 l 278 150 q 422 119 331 119 z "},"ù":{"ha":861,"x_min":68,"x_max":794,"o":"m 511 778 l 354 778 l 124 958 l 333 958 l 511 778 m 357 -14 q 142 67 217 -14 q 68 275 68 149 l 68 690 l 217 690 l 217 315 q 266 169 217 217 q 422 121 315 121 q 646 349 646 121 l 646 690 l 794 690 l 794 0 l 657 0 l 657 214 l 649 214 q 556 51 631 117 q 357 -14 482 -14 z "},"ú":{"ha":861,"x_min":68,"x_max":794,"o":"m 510 778 l 351 778 l 529 958 l 739 958 l 510 778 m 357 -14 q 142 67 217 -14 q 68 275 68 149 l 68 690 l 217 690 l 217 315 q 266 169 217 217 q 422 121 315 121 q 646 349 646 121 l 646 690 l 794 690 l 794 0 l 657 0 l 657 214 l 649 214 q 556 51 631 117 q 357 -14 482 -14 z "},"û":{"ha":861,"x_min":68,"x_max":794,"o":"m 322 778 l 163 778 l 344 958 l 517 958 l 700 778 l 539 778 l 436 882 l 425 882 l 322 778 m 357 -14 q 142 67 217 -14 q 68 275 68 149 l 68 690 l 217 690 l 217 315 q 266 169 217 217 q 422 121 315 121 q 646 349 646 121 l 646 690 l 794 690 l 794 0 l 657 0 l 657 214 l 649 214 q 556 51 631 117 q 357 -14 482 -14 z "},"ü":{"ha":861,"x_min":68,"x_max":794,"o":"m 632 778 l 489 778 l 489 950 l 632 950 l 632 778 m 372 778 l 229 778 l 229 950 l 372 950 l 372 778 m 357 -14 q 142 67 217 -14 q 68 275 68 149 l 68 690 l 217 690 l 217 315 q 266 169 217 217 q 422 121 315 121 q 646 349 646 121 l 646 690 l 794 690 l 794 0 l 657 0 l 657 214 l 649 214 q 556 51 631 117 q 357 -14 482 -14 z "},"ý":{"ha":821,"x_min":0,"x_max":817,"o":"m 488 778 l 329 778 l 507 958 l 717 958 l 488 778 m 181 -236 l 82 -236 l 82 -100 l 217 -100 q 285 -86 263 -100 q 324 -36 308 -72 l 340 0 l 0 690 l 168 690 l 344 324 l 413 158 l 424 158 l 489 325 l 651 690 l 817 690 l 457 -75 q 352 -201 415 -165 q 181 -236 289 -236 z "},"þ":{"ha":869,"x_min":63,"x_max":835,"o":"m 213 -236 l 63 -236 l 63 931 l 213 931 l 213 496 l 218 496 q 315 648 239 592 q 506 704 390 704 q 749 607 663 704 q 835 344 835 510 q 749 83 835 181 q 506 -14 663 -14 q 315 42 390 -14 q 218 194 239 99 l 213 194 l 213 -236 m 213 333 q 276 176 213 229 q 454 122 339 122 q 626 174 568 122 q 685 344 685 225 q 626 517 685 465 q 454 568 568 568 q 276 515 339 568 q 213 356 213 461 l 213 333 z "},"ÿ":{"ha":821,"x_min":0,"x_max":817,"o":"m 610 778 l 467 778 l 467 950 l 610 950 l 610 778 m 350 778 l 207 778 l 207 950 l 350 950 l 350 778 m 181 -236 l 82 -236 l 82 -100 l 217 -100 q 285 -86 263 -100 q 324 -36 308 -72 l 340 0 l 0 690 l 168 690 l 344 324 l 413 158 l 424 158 l 489 325 l 651 690 l 817 690 l 457 -75 q 352 -201 415 -165 q 181 -236 289 -236 z "},"Ā":{"ha":1042,"x_min":0,"x_max":1042,"o":"m 726 1053 l 315 1053 l 315 1160 l 726 1160 l 726 1053 m 167 0 l 0 0 l 415 931 l 626 931 l 1042 0 l 872 0 l 765 242 l 274 242 l 167 0 m 460 660 l 333 376 l 706 376 l 579 660 l 525 792 l 514 792 l 460 660 z "},"ā":{"ha":786,"x_min":39,"x_max":722,"o":"m 604 815 l 192 815 l 192 922 l 604 922 l 604 815 m 272 -14 q 101 34 164 -14 q 39 167 39 82 q 261 344 39 319 l 575 378 l 575 418 q 534 538 575 503 q 393 572 493 572 q 249 538 296 572 q 203 429 203 504 l 203 424 l 54 424 l 54 429 q 149 627 54 550 q 404 704 243 704 q 642 627 563 704 q 722 419 722 550 l 722 0 l 585 0 l 585 172 l 575 172 q 468 35 547 85 q 272 -14 389 -14 m 189 176 q 313 94 189 94 q 505 142 435 94 q 575 289 575 190 l 304 258 q 216 233 243 250 q 189 176 189 215 z "},"Ă":{"ha":1042,"x_min":0,"x_max":1042,"o":"m 667 1046 q 639 1023 667 1046 q 521 1000 611 1000 q 376 1046 431 1000 q 321 1167 321 1092 l 321 1182 l 429 1182 l 429 1168 q 450 1113 429 1131 q 521 1094 471 1094 q 594 1112 574 1094 q 614 1168 614 1129 l 614 1182 l 722 1182 l 722 1167 q 667 1046 722 1092 m 167 0 l 0 0 l 415 931 l 626 931 l 1042 0 l 872 0 l 765 242 l 274 242 l 167 0 m 460 660 l 333 376 l 706 376 l 579 660 l 525 792 l 514 792 l 460 660 z "},"ă":{"ha":786,"x_min":39,"x_max":722,"o":"m 544 810 q 516 787 544 810 q 399 764 489 764 q 253 810 308 764 q 197 931 197 856 l 197 954 l 306 954 l 306 932 q 326 875 306 893 q 399 857 347 857 q 471 874 451 857 q 490 932 490 892 l 490 954 l 599 954 l 599 931 q 544 810 599 856 m 272 -14 q 101 34 164 -14 q 39 167 39 82 q 261 344 39 319 l 575 378 l 575 418 q 534 538 575 503 q 393 572 493 572 q 249 538 296 572 q 203 429 203 504 l 203 424 l 54 424 l 54 429 q 149 627 54 550 q 404 704 243 704 q 642 627 563 704 q 722 419 722 550 l 722 0 l 585 0 l 585 172 l 575 172 q 468 35 547 85 q 272 -14 389 -14 m 189 176 q 313 94 189 94 q 505 142 435 94 q 575 289 575 190 l 304 258 q 216 233 243 250 q 189 176 189 215 z "},"Ą":{"ha":1042,"x_min":0,"x_max":1083,"o":"m 167 0 l 0 0 l 415 931 l 626 931 l 1042 0 l 982 -75 q 956 -131 956 -110 q 1001 -165 956 -165 l 1083 -165 l 1083 -260 l 972 -260 q 839 -164 839 -260 q 850 -117 839 -140 q 870 -82 861 -93 q 903 -44 879 -71 l 943 0 l 872 0 l 765 242 l 274 242 l 167 0 m 460 660 l 333 376 l 706 376 l 579 660 l 525 792 l 514 792 l 460 660 z "},"ą":{"ha":786,"x_min":39,"x_max":763,"o":"m 272 -14 q 101 34 164 -14 q 39 167 39 82 q 261 344 39 319 l 575 378 l 575 418 q 534 538 575 503 q 393 572 493 572 q 249 538 296 572 q 203 429 203 504 l 203 424 l 54 424 l 54 429 q 149 627 54 550 q 404 704 243 704 q 642 627 563 704 q 722 419 722 550 l 722 0 l 663 -75 q 635 -131 635 -110 q 681 -165 635 -165 l 763 -165 l 763 -260 l 651 -260 q 518 -164 518 -260 q 529 -117 518 -140 q 549 -82 540 -93 q 582 -44 558 -71 l 622 0 l 585 0 l 585 172 l 575 172 q 468 35 547 85 q 272 -14 389 -14 m 189 176 q 313 94 189 94 q 505 142 435 94 q 575 289 575 190 l 304 258 q 216 233 243 250 q 189 176 189 215 z "},"Ć":{"ha":1010,"x_min":42,"x_max":968,"o":"m 585 1014 l 426 1014 l 603 1190 l 814 1190 l 585 1014 m 522 -14 q 174 117 306 -14 q 42 465 42 249 q 174 813 42 682 q 522 944 306 944 q 844 847 721 944 q 968 583 968 749 l 968 564 l 803 564 l 803 583 q 524 801 803 801 q 280 720 360 801 q 200 465 200 639 q 279 212 200 293 q 524 131 358 131 q 803 349 803 131 l 803 367 l 968 367 l 968 349 q 845 84 968 182 q 522 -14 722 -14 z "},"ć":{"ha":818,"x_min":42,"x_max":776,"o":"m 504 778 l 346 778 l 524 958 l 733 958 l 504 778 m 418 -14 q 145 85 249 -14 q 42 344 42 185 q 144 606 42 507 q 418 704 247 704 q 676 624 575 704 q 776 415 776 543 l 776 401 l 628 401 l 628 410 q 415 569 628 569 q 245 514 300 569 q 190 344 190 458 q 245 176 190 232 q 415 121 300 121 q 628 281 628 121 l 628 290 l 776 290 l 776 275 q 676 67 776 147 q 418 -14 575 -14 z "},"Ĉ":{"ha":1010,"x_min":42,"x_max":968,"o":"m 396 1014 l 236 1014 l 418 1194 l 592 1194 l 774 1014 l 614 1014 l 511 1118 l 500 1118 l 396 1014 m 522 -14 q 174 117 306 -14 q 42 465 42 249 q 174 813 42 682 q 522 944 306 944 q 844 847 721 944 q 968 583 968 749 l 968 564 l 803 564 l 803 583 q 524 801 803 801 q 280 720 360 801 q 200 465 200 639 q 279 212 200 293 q 524 131 358 131 q 803 349 803 131 l 803 367 l 968 367 l 968 349 q 845 84 968 182 q 522 -14 722 -14 z "},"ĉ":{"ha":818,"x_min":42,"x_max":776,"o":"m 315 778 l 157 778 l 338 958 l 511 958 l 693 778 l 533 778 l 431 882 l 419 882 l 315 778 m 418 -14 q 145 85 249 -14 q 42 344 42 185 q 144 606 42 507 q 418 704 247 704 q 676 624 575 704 q 776 415 776 543 l 776 401 l 628 401 l 628 410 q 415 569 628 569 q 245 514 300 569 q 190 344 190 458 q 245 176 190 232 q 415 121 300 121 q 628 281 628 121 l 628 290 l 776 290 l 776 275 q 676 67 776 147 q 418 -14 575 -14 z "},"Ċ":{"ha":1010,"x_min":42,"x_max":968,"o":"m 579 1014 l 431 1014 l 431 1186 l 579 1186 l 579 1014 m 522 -14 q 174 117 306 -14 q 42 465 42 249 q 174 813 42 682 q 522 944 306 944 q 844 847 721 944 q 968 583 968 749 l 968 564 l 803 564 l 803 583 q 524 801 803 801 q 280 720 360 801 q 200 465 200 639 q 279 212 200 293 q 524 131 358 131 q 803 349 803 131 l 803 367 l 968 367 l 968 349 q 845 84 968 182 q 522 -14 722 -14 z "},"ċ":{"ha":818,"x_min":42,"x_max":776,"o":"m 500 778 l 350 778 l 350 950 l 500 950 l 500 778 m 418 -14 q 145 85 249 -14 q 42 344 42 185 q 144 606 42 507 q 418 704 247 704 q 676 624 575 704 q 776 415 776 543 l 776 401 l 628 401 l 628 410 q 415 569 628 569 q 245 514 300 569 q 190 344 190 458 q 245 176 190 232 q 415 121 300 121 q 628 281 628 121 l 628 290 l 776 290 l 776 275 q 676 67 776 147 q 418 -14 575 -14 z "},"Č":{"ha":1010,"x_min":42,"x_max":968,"o":"m 614 1194 l 774 1194 l 592 1014 l 419 1014 l 236 1194 l 396 1194 l 500 1090 l 511 1090 l 614 1194 m 522 -14 q 174 117 306 -14 q 42 465 42 249 q 174 813 42 682 q 522 944 306 944 q 844 847 721 944 q 968 583 968 749 l 968 564 l 803 564 l 803 583 q 524 801 803 801 q 280 720 360 801 q 200 465 200 639 q 279 212 200 293 q 524 131 358 131 q 803 349 803 131 l 803 367 l 968 367 l 968 349 q 845 84 968 182 q 522 -14 722 -14 z "},"č":{"ha":818,"x_min":42,"x_max":776,"o":"m 511 778 l 338 778 l 157 958 l 321 958 l 419 854 l 431 854 l 529 958 l 693 958 l 511 778 m 418 -14 q 145 85 249 -14 q 42 344 42 185 q 144 606 42 507 q 418 704 247 704 q 676 624 575 704 q 776 415 776 543 l 776 401 l 628 401 l 628 410 q 415 569 628 569 q 245 514 300 569 q 190 344 190 458 q 245 176 190 232 q 415 121 300 121 q 628 281 628 121 l 628 290 l 776 290 l 776 275 q 676 67 776 147 q 418 -14 575 -14 z "},"Ď":{"ha":1014,"x_min":78,"x_max":972,"o":"m 633 1194 l 793 1194 l 611 1014 l 439 1014 l 256 1194 l 417 1194 l 519 1090 l 531 1090 l 633 1194 m 501 0 l 78 0 l 78 931 l 501 931 q 845 806 718 931 q 972 465 972 681 q 845 125 972 250 q 501 0 718 0 m 501 796 l 226 796 l 226 135 l 501 135 q 740 212 665 135 q 814 465 814 289 q 740 719 814 642 q 501 796 665 796 z "},"ď":{"ha":988,"x_min":35,"x_max":1010,"o":"m 374 -14 q 124 84 213 -14 q 35 344 35 182 q 122 606 35 508 q 364 704 208 704 q 554 649 482 704 q 649 503 626 594 l 657 503 l 657 931 l 807 931 l 807 0 l 669 0 l 669 199 l 660 199 q 564 41 638 96 q 374 -14 490 -14 m 904 629 l 867 629 l 867 704 l 901 704 q 923 710 917 704 q 929 732 929 715 l 929 757 l 865 757 l 865 931 l 1010 931 l 1010 735 q 904 629 1010 629 m 186 344 q 244 174 186 225 q 419 124 303 124 q 594 178 532 124 q 657 338 657 232 l 657 349 q 417 568 657 568 q 244 517 303 568 q 186 344 186 465 z "},"Đ":{"ha":1093,"x_min":14,"x_max":1050,"o":"m 579 0 l 156 0 l 156 399 l 14 399 l 14 532 l 156 532 l 156 931 l 579 931 q 923 806 796 931 q 1050 465 1050 681 q 923 125 1050 250 q 579 0 796 0 m 608 399 l 304 399 l 304 135 l 579 135 q 817 212 743 135 q 892 465 892 289 q 817 719 892 642 q 579 796 743 796 l 304 796 l 304 532 l 608 532 l 608 399 z "},"đ":{"ha":919,"x_min":35,"x_max":915,"o":"m 369 -14 q 123 76 211 -14 q 35 317 35 165 q 121 558 35 468 q 361 649 207 649 q 551 594 476 649 q 649 450 626 539 l 657 450 l 657 717 l 383 717 l 383 832 l 657 832 l 657 931 l 807 931 l 807 832 l 915 832 l 915 717 l 807 717 l 807 0 l 669 0 l 669 194 l 660 194 q 563 42 639 97 q 369 -14 486 -14 m 186 317 q 244 168 186 213 q 415 124 301 124 q 594 171 531 124 q 657 310 657 218 l 657 321 q 594 462 657 411 q 414 513 531 513 q 244 467 301 513 q 186 317 186 422 z "},"Ē":{"ha":861,"x_min":69,"x_max":814,"o":"m 647 1053 l 235 1053 l 235 1160 l 647 1160 l 647 1053 m 814 0 l 69 0 l 69 931 l 814 931 l 814 796 l 219 796 l 219 535 l 793 535 l 793 401 l 219 401 l 219 135 l 814 135 l 814 0 z "},"ē":{"ha":817,"x_min":42,"x_max":774,"o":"m 614 815 l 201 815 l 201 922 l 614 922 l 614 815 m 417 -14 q 143 80 244 -14 q 42 344 42 174 q 144 606 42 507 q 414 704 246 704 q 676 617 578 704 q 774 376 774 531 q 768 311 774 339 l 182 311 q 241 158 186 208 q 413 107 296 107 q 617 236 617 107 l 617 247 l 767 247 l 767 235 q 669 56 767 125 q 417 -14 571 -14 m 411 586 q 183 394 196 586 l 632 394 l 632 397 q 411 586 632 586 z "},"Ĕ":{"ha":861,"x_min":69,"x_max":814,"o":"m 587 1046 q 559 1023 587 1046 q 442 1000 532 1000 q 296 1046 351 1000 q 240 1167 240 1092 l 240 1182 l 349 1182 l 349 1168 q 370 1113 349 1131 q 442 1094 392 1094 q 513 1112 493 1094 q 533 1168 533 1129 l 533 1182 l 642 1182 l 642 1167 q 587 1046 642 1092 m 814 0 l 69 0 l 69 931 l 814 931 l 814 796 l 219 796 l 219 535 l 793 535 l 793 401 l 219 401 l 219 135 l 814 135 l 814 0 z "},"ĕ":{"ha":817,"x_min":42,"x_max":774,"o":"m 553 810 q 526 787 553 810 q 408 764 499 764 q 263 810 318 764 q 207 931 207 856 l 207 954 l 315 954 l 315 932 q 336 875 315 893 q 408 857 357 857 q 480 874 460 857 q 500 932 500 892 l 500 954 l 608 954 l 608 931 q 553 810 608 856 m 417 -14 q 143 80 244 -14 q 42 344 42 174 q 144 606 42 507 q 414 704 246 704 q 676 617 578 704 q 774 376 774 531 q 768 311 774 339 l 182 311 q 241 158 186 208 q 413 107 296 107 q 617 236 617 107 l 617 247 l 767 247 l 767 235 q 669 56 767 125 q 417 -14 571 -14 m 411 586 q 183 394 196 586 l 632 394 l 632 397 q 411 586 632 586 z "},"Ė":{"ha":861,"x_min":69,"x_max":814,"o":"m 517 1014 l 367 1014 l 367 1186 l 517 1186 l 517 1014 m 814 0 l 69 0 l 69 931 l 814 931 l 814 796 l 219 796 l 219 535 l 793 535 l 793 401 l 219 401 l 219 135 l 814 135 l 814 0 z "},"ė":{"ha":817,"x_min":42,"x_max":774,"o":"m 482 778 l 333 778 l 333 950 l 482 950 l 482 778 m 417 -14 q 143 80 244 -14 q 42 344 42 174 q 144 606 42 507 q 414 704 246 704 q 676 617 578 704 q 774 376 774 531 q 768 311 774 339 l 182 311 q 241 158 186 208 q 413 107 296 107 q 617 236 617 107 l 617 247 l 767 247 l 767 235 q 669 56 767 125 q 417 -14 571 -14 m 411 586 q 183 394 196 586 l 632 394 l 632 397 q 411 586 632 586 z "},"Ę":{"ha":861,"x_min":69,"x_max":856,"o":"m 793 401 l 219 401 l 219 135 l 814 135 l 814 0 l 754 -75 q 728 -131 728 -110 q 774 -165 728 -165 l 856 -165 l 856 -260 l 744 -260 q 611 -164 611 -260 q 622 -117 611 -140 q 642 -82 633 -93 q 675 -44 651 -71 l 715 0 l 69 0 l 69 931 l 814 931 l 814 796 l 219 796 l 219 535 l 793 535 l 793 401 z "},"ę":{"ha":817,"x_min":42,"x_max":774,"o":"m 558 -260 l 447 -260 q 314 -164 314 -260 q 325 -117 314 -140 q 345 -82 336 -93 q 378 -44 354 -71 l 406 -14 q 140 83 239 -11 q 42 344 42 178 q 144 606 42 507 q 414 704 246 704 q 676 617 578 704 q 774 376 774 531 q 768 311 774 339 l 182 311 q 241 158 186 208 q 413 107 296 107 q 617 236 617 107 l 617 247 l 767 247 l 767 235 q 697 78 767 143 q 513 -6 628 14 l 457 -75 q 431 -131 431 -110 q 476 -165 431 -165 l 558 -165 l 558 -260 m 411 586 q 183 394 196 586 l 632 394 l 632 397 q 411 586 632 586 z "},"Ě":{"ha":861,"x_min":69,"x_max":814,"o":"m 550 1194 l 710 1194 l 528 1014 l 356 1014 l 172 1194 l 333 1194 l 436 1090 l 447 1090 l 550 1194 m 814 0 l 69 0 l 69 931 l 814 931 l 814 796 l 219 796 l 219 535 l 793 535 l 793 401 l 219 401 l 219 135 l 814 135 l 814 0 z "},"ě":{"ha":817,"x_min":42,"x_max":774,"o":"m 494 778 l 321 778 l 139 958 l 304 958 l 403 854 l 414 854 l 511 958 l 676 958 l 494 778 m 417 -14 q 143 80 244 -14 q 42 344 42 174 q 144 606 42 507 q 414 704 246 704 q 676 617 578 704 q 774 376 774 531 q 768 311 774 339 l 182 311 q 241 158 186 208 q 413 107 296 107 q 617 236 617 107 l 617 247 l 767 247 l 767 235 q 669 56 767 125 q 417 -14 571 -14 m 411 586 q 183 394 196 586 l 632 394 l 632 397 q 411 586 632 586 z "},"Ĝ":{"ha":1039,"x_min":42,"x_max":982,"o":"m 424 1014 l 265 1014 l 447 1194 l 619 1194 l 803 1014 l 642 1014 l 539 1118 l 528 1118 l 424 1014 m 497 -14 q 167 117 292 -14 q 42 465 42 249 q 176 814 42 683 q 535 944 311 944 q 858 850 735 944 q 982 596 982 756 l 982 585 l 817 585 l 817 596 q 531 801 817 801 q 281 720 363 801 q 200 465 200 639 q 279 212 200 293 q 524 131 358 131 q 762 181 690 131 q 833 349 833 231 l 833 361 l 489 361 l 489 475 l 982 475 l 982 0 l 846 0 l 846 201 l 836 201 q 719 42 807 99 q 497 -14 632 -14 z "},"ĝ":{"ha":872,"x_min":42,"x_max":803,"o":"m 318 778 l 158 778 l 340 958 l 514 958 l 696 778 l 536 778 l 433 882 l 422 882 l 318 778 m 369 63 q 129 150 217 63 q 42 383 42 238 q 133 617 42 529 q 379 704 224 704 q 564 656 489 704 q 657 518 639 607 l 665 518 l 665 690 l 803 690 l 803 81 q 706 -169 803 -87 q 432 -250 608 -250 q 181 -181 276 -250 q 86 13 86 -111 l 235 13 q 282 -94 235 -62 q 440 -125 329 -125 q 607 -83 560 -125 q 654 72 654 -42 l 654 242 l 644 242 q 554 111 625 160 q 369 63 483 63 m 251 530 q 222 508 251 530 q 193 383 193 486 q 250 236 193 281 q 418 192 307 192 q 594 239 533 192 q 654 378 654 286 l 654 397 q 594 528 654 483 q 422 574 533 574 q 251 530 308 574 z "},"Ğ":{"ha":1039,"x_min":42,"x_max":982,"o":"m 678 1046 q 651 1023 678 1046 q 533 1000 624 1000 q 388 1046 443 1000 q 333 1167 333 1092 l 333 1182 l 442 1182 l 442 1168 q 463 1113 442 1131 q 533 1094 483 1094 q 605 1112 585 1094 q 625 1168 625 1129 l 625 1182 l 733 1182 l 733 1167 q 678 1046 733 1092 m 497 -14 q 167 117 292 -14 q 42 465 42 249 q 176 814 42 683 q 535 944 311 944 q 858 850 735 944 q 982 596 982 756 l 982 585 l 817 585 l 817 596 q 531 801 817 801 q 281 720 363 801 q 200 465 200 639 q 279 212 200 293 q 524 131 358 131 q 762 181 690 131 q 833 349 833 231 l 833 361 l 489 361 l 489 475 l 982 475 l 982 0 l 846 0 l 846 201 l 836 201 q 719 42 807 99 q 497 -14 632 -14 z "},"ğ":{"ha":872,"x_min":42,"x_max":803,"o":"m 573 810 q 545 787 573 810 q 428 764 518 764 q 282 810 338 764 q 226 931 226 856 l 226 954 l 335 954 l 335 932 q 356 874 335 892 q 428 857 376 857 q 499 874 479 857 q 519 932 519 892 l 519 954 l 628 954 l 628 931 q 573 810 628 856 m 369 63 q 129 150 217 63 q 42 383 42 238 q 133 617 42 529 q 379 704 224 704 q 564 656 489 704 q 657 518 639 607 l 665 518 l 665 690 l 803 690 l 803 81 q 706 -169 803 -87 q 432 -250 608 -250 q 181 -181 276 -250 q 86 13 86 -111 l 235 13 q 282 -94 235 -62 q 440 -125 329 -125 q 607 -83 560 -125 q 654 72 654 -42 l 654 242 l 644 242 q 554 111 625 160 q 369 63 483 63 m 251 530 q 222 508 251 530 q 193 383 193 486 q 250 236 193 281 q 418 192 307 192 q 594 239 533 192 q 654 378 654 286 l 654 397 q 594 528 654 483 q 422 574 533 574 q 251 530 308 574 z "},"Ġ":{"ha":1039,"x_min":42,"x_max":982,"o":"m 608 1014 l 458 1014 l 458 1186 l 608 1186 l 608 1014 m 497 -14 q 167 117 292 -14 q 42 465 42 249 q 176 814 42 683 q 535 944 311 944 q 858 850 735 944 q 982 596 982 756 l 982 585 l 817 585 l 817 596 q 531 801 817 801 q 281 720 363 801 q 200 465 200 639 q 279 212 200 293 q 524 131 358 131 q 762 181 690 131 q 833 349 833 231 l 833 361 l 489 361 l 489 475 l 982 475 l 982 0 l 846 0 l 846 201 l 836 201 q 719 42 807 99 q 497 -14 632 -14 z "},"ġ":{"ha":872,"x_min":42,"x_max":803,"o":"m 501 778 l 353 778 l 353 950 l 501 950 l 501 778 m 369 63 q 129 150 217 63 q 42 383 42 238 q 133 617 42 529 q 379 704 224 704 q 564 656 489 704 q 657 518 639 607 l 665 518 l 665 690 l 803 690 l 803 81 q 706 -169 803 -87 q 432 -250 608 -250 q 181 -181 276 -250 q 86 13 86 -111 l 235 13 q 282 -94 235 -62 q 440 -125 329 -125 q 607 -83 560 -125 q 654 72 654 -42 l 654 242 l 644 242 q 554 111 625 160 q 369 63 483 63 m 251 530 q 222 508 251 530 q 193 383 193 486 q 250 236 193 281 q 418 192 307 192 q 594 239 533 192 q 654 378 654 286 l 654 397 q 594 528 654 483 q 422 574 533 574 q 251 530 308 574 z "},"Ģ":{"ha":1039,"x_min":42,"x_max":982,"o":"m 497 -14 q 167 117 292 -14 q 42 465 42 249 q 176 814 42 683 q 535 944 311 944 q 858 850 735 944 q 982 596 982 756 l 982 585 l 817 585 l 817 596 q 531 801 817 801 q 281 720 363 801 q 200 465 200 639 q 279 212 200 293 q 524 131 358 131 q 762 181 690 131 q 833 349 833 231 l 833 361 l 489 361 l 489 475 l 982 475 l 982 0 l 846 0 l 846 201 l 836 201 q 719 42 807 99 q 497 -14 632 -14 m 446 -278 l 281 -278 l 414 -97 l 621 -97 l 446 -278 z "},"ģ":{"ha":872,"x_min":42,"x_max":803,"o":"m 464 958 l 610 958 l 489 778 l 301 778 l 464 958 m 369 63 q 129 150 217 63 q 42 383 42 238 q 133 617 42 529 q 379 704 224 704 q 564 656 489 704 q 657 518 639 607 l 665 518 l 665 690 l 803 690 l 803 81 q 706 -169 803 -87 q 432 -250 608 -250 q 181 -181 276 -250 q 86 13 86 -111 l 235 13 q 282 -94 235 -62 q 440 -125 329 -125 q 607 -83 560 -125 q 654 72 654 -42 l 654 242 l 644 242 q 554 111 625 160 q 369 63 483 63 m 251 530 q 222 508 251 530 q 193 383 193 486 q 250 236 193 281 q 418 192 307 192 q 594 239 533 192 q 654 378 654 286 l 654 397 q 594 528 654 483 q 422 574 533 574 q 251 530 308 574 z "},"Ĥ":{"ha":986,"x_min":69,"x_max":915,"o":"m 383 1014 l 225 1014 l 407 1194 l 579 1194 l 763 1014 l 601 1014 l 499 1118 l 488 1118 l 383 1014 m 219 0 l 69 0 l 69 931 l 219 931 l 219 536 l 767 536 l 767 931 l 915 931 l 915 0 l 767 0 l 767 401 l 219 401 l 219 0 z "},"ĥ":{"ha":861,"x_min":-125,"x_max":796,"o":"m 33 1014 l -125 1014 l 57 1194 l 229 1194 l 413 1014 l 251 1014 l 149 1118 l 138 1118 l 33 1014 m 219 0 l 69 0 l 69 931 l 219 931 l 219 479 l 228 479 q 318 640 247 576 q 513 704 389 704 q 723 624 650 704 q 796 411 796 543 l 796 0 l 647 0 l 647 375 q 599 524 647 479 q 442 569 550 569 q 272 510 324 569 q 219 335 219 450 l 219 0 z "},"Ħ":{"ha":986,"x_min":-49,"x_max":1035,"o":"m 219 0 l 69 0 l 69 682 l -49 682 l -49 817 l 69 817 l 69 931 l 219 931 l 219 817 l 767 817 l 767 931 l 915 931 l 915 817 l 1035 817 l 1035 682 l 915 682 l 915 0 l 767 0 l 767 401 l 219 401 l 219 0 m 219 536 l 767 536 l 767 682 l 219 682 l 219 536 z "},"ħ":{"ha":883,"x_min":-7,"x_max":825,"o":"m 249 0 l 99 0 l 99 717 l -7 717 l -7 832 l 99 832 l 99 931 l 249 931 l 249 832 l 525 832 l 525 717 l 249 717 l 249 410 l 257 410 q 348 571 276 507 q 544 635 419 635 q 753 554 681 635 q 825 342 825 474 l 825 0 l 676 0 l 676 306 q 628 455 676 410 q 474 500 581 500 q 301 440 353 500 q 249 264 249 379 l 249 0 z "},"Ĩ":{"ha":289,"x_min":-83,"x_max":372,"o":"m 18 1022 l -83 1022 l -83 1078 q 28 1203 -83 1203 q 136 1167 68 1203 l 171 1147 q 233 1124 208 1124 q 272 1171 272 1124 l 272 1197 l 372 1197 l 372 1143 q 346 1051 372 1085 q 268 1017 319 1017 q 157 1053 219 1017 l 114 1075 q 54 1099 79 1099 q 18 1056 18 1099 l 18 1022 m 219 0 l 69 0 l 69 931 l 219 931 l 219 0 z "},"ĩ":{"ha":296,"x_min":-79,"x_max":376,"o":"m 22 786 l -79 786 l -79 843 q 32 967 -79 967 q 139 931 74 967 l 174 911 q 236 888 211 888 q 275 935 275 888 l 275 961 l 376 961 l 376 907 q 350 815 376 849 q 271 781 324 781 q 161 817 224 781 l 117 839 q 57 863 79 863 q 22 821 22 863 l 22 786 m 222 0 l 74 0 l 74 694 l 222 694 l 222 0 z "},"Ī":{"ha":289,"x_min":-61,"x_max":350,"o":"m 350 1053 l -61 1053 l -61 1160 l 350 1160 l 350 1053 m 219 0 l 69 0 l 69 931 l 219 931 l 219 0 z "},"ī":{"ha":296,"x_min":-58,"x_max":354,"o":"m 354 815 l -58 815 l -58 922 l 354 922 l 354 815 m 222 0 l 74 0 l 74 694 l 222 694 l 222 0 z "},"Ĭ":{"ha":289,"x_min":-56,"x_max":344,"o":"m 290 1046 q 262 1023 290 1046 q 144 1000 235 1000 q -1 1046 54 1000 q -56 1167 -56 1092 l -56 1182 l 53 1182 l 53 1168 q 74 1113 53 1131 q 144 1094 94 1094 q 217 1112 197 1094 q 238 1168 238 1129 l 238 1182 l 344 1182 l 344 1167 q 290 1046 344 1092 m 219 0 l 69 0 l 69 931 l 219 931 l 219 0 z "},"ĭ":{"ha":296,"x_min":-53,"x_max":349,"o":"m 294 810 q 266 787 294 810 q 149 764 239 764 q 3 810 58 764 q -53 931 -53 856 l -53 954 l 56 954 l 56 932 q 76 875 56 893 q 149 857 97 857 q 221 874 201 857 q 240 932 240 892 l 240 954 l 349 954 l 349 931 q 294 810 349 856 m 222 0 l 74 0 l 74 694 l 222 694 l 222 0 z "},"Į":{"ha":289,"x_min":15,"x_max":261,"o":"m 261 -260 l 149 -260 q 15 -164 15 -260 q 26 -117 15 -140 q 47 -82 38 -93 q 79 -44 56 -71 l 119 0 l 69 0 l 69 931 l 219 931 l 219 0 l 160 -75 q 132 -131 132 -110 q 179 -165 132 -165 l 261 -165 l 261 -260 z "},"į":{"ha":289,"x_min":15,"x_max":261,"o":"m 219 771 l 69 771 l 69 931 l 219 931 l 219 771 m 261 -260 l 149 -260 q 15 -164 15 -260 q 26 -117 15 -140 q 47 -82 38 -93 q 79 -44 56 -71 l 119 0 l 69 0 l 69 690 l 219 690 l 219 0 l 160 -75 q 132 -131 132 -110 q 179 -165 132 -165 l 261 -165 l 261 -260 z "},"İ":{"ha":289,"x_min":69,"x_max":219,"o":"m 219 1014 l 69 1014 l 69 1186 l 219 1186 l 219 1014 m 219 0 l 69 0 l 69 931 l 219 931 l 219 0 z "},"ı":{"ha":296,"x_min":74,"x_max":222,"o":"m 222 0 l 74 0 l 74 694 l 222 694 l 222 0 z "},"Ĳ":{"ha":1165,"x_min":69,"x_max":1101,"o":"m 219 0 l 69 0 l 69 931 l 219 931 l 219 0 m 708 -14 q 411 83 506 -14 q 317 354 317 181 l 317 397 l 475 397 l 475 353 q 526 182 475 233 q 708 131 576 131 q 892 181 840 131 q 944 346 944 232 l 944 931 l 1101 931 l 1101 347 q 1007 82 1101 178 q 708 -14 913 -14 z "},"ĳ":{"ha":579,"x_min":69,"x_max":510,"o":"m 219 771 l 69 771 l 69 931 l 219 931 l 219 771 m 510 771 l 361 771 l 361 931 l 510 931 l 510 771 m 219 0 l 69 0 l 69 690 l 219 690 l 219 0 m 265 -236 l 222 -236 l 222 -121 l 271 -121 q 361 -35 361 -121 l 361 690 l 510 690 l 510 -8 q 446 -183 510 -131 q 265 -236 382 -236 z "},"Ĵ":{"ha":876,"x_min":28,"x_max":1006,"o":"m 628 1014 l 468 1014 l 650 1194 l 824 1194 l 1006 1014 l 846 1014 l 743 1118 l 732 1118 l 628 1014 m 419 -14 q 122 83 217 -14 q 28 354 28 181 l 28 397 l 186 397 l 186 353 q 237 182 186 233 q 419 131 288 131 q 603 181 551 131 q 656 346 656 232 l 656 931 l 813 931 l 813 347 q 718 82 813 178 q 419 -14 624 -14 z "},"ĵ":{"ha":290,"x_min":-124,"x_max":414,"o":"m 36 778 l -124 778 l 58 958 l 232 958 l 414 778 l 254 778 l 151 882 l 140 882 l 36 778 m -24 -236 l -67 -236 l -67 -121 l -19 -121 q 71 -35 71 -121 l 71 690 l 221 690 l 221 -8 q 157 -183 221 -131 q -24 -236 93 -236 z "},"Ķ":{"ha":961,"x_min":69,"x_max":951,"o":"m 219 0 l 69 0 l 69 931 l 219 931 l 219 533 l 501 533 l 774 931 l 951 931 l 626 471 l 950 0 l 772 0 l 504 389 l 219 389 l 219 0 m 438 -278 l 272 -278 l 404 -97 l 611 -97 l 438 -278 z "},"ķ":{"ha":803,"x_min":69,"x_max":799,"o":"m 219 0 l 69 0 l 69 931 l 219 931 l 219 417 l 417 417 l 624 690 l 799 690 l 539 358 l 797 0 l 621 0 l 417 282 l 219 282 l 219 0 m 342 -278 l 196 -278 l 317 -97 l 504 -97 l 342 -278 z "},"Ĺ":{"ha":821,"x_min":69,"x_max":793,"o":"m 229 1014 l 69 1014 l 247 1190 l 457 1190 l 229 1014 m 793 0 l 69 0 l 69 931 l 219 931 l 219 135 l 793 135 l 793 0 z "},"ĺ":{"ha":289,"x_min":69,"x_max":458,"o":"m 231 1014 l 71 1014 l 249 1190 l 458 1190 l 231 1014 m 219 0 l 69 0 l 69 931 l 219 931 l 219 0 z "},"Ļ":{"ha":821,"x_min":69,"x_max":793,"o":"m 793 0 l 69 0 l 69 931 l 219 931 l 219 135 l 793 135 l 793 0 m 371 -278 l 206 -278 l 339 -97 l 546 -97 l 371 -278 z "},"ļ":{"ha":289,"x_min":-74,"x_max":236,"o":"m 219 0 l 69 0 l 69 931 l 219 931 l 219 0 m 72 -278 l -74 -278 l 47 -97 l 236 -97 l 72 -278 z "},"Ľ":{"ha":821,"x_min":69,"x_max":793,"o":"m 793 0 l 69 0 l 69 931 l 219 931 l 219 135 l 793 135 l 793 0 m 514 551 l 465 551 l 465 650 l 510 650 q 537 657 529 650 q 544 686 544 664 l 544 715 l 461 715 l 461 931 l 651 931 l 651 688 q 514 551 651 551 z "},"ľ":{"ha":436,"x_min":69,"x_max":439,"o":"m 219 0 l 69 0 l 69 931 l 219 931 l 219 0 m 333 629 l 296 629 l 296 704 l 331 704 q 353 710 346 704 q 360 732 360 715 l 360 757 l 294 757 l 294 931 l 439 931 l 439 735 q 333 629 439 629 z "},"Ŀ":{"ha":821,"x_min":69,"x_max":793,"o":"m 224 1014 l 74 1014 l 74 1186 l 224 1186 l 224 1014 m 793 0 l 69 0 l 69 931 l 219 931 l 219 135 l 793 135 l 793 0 z "},"ŀ":{"ha":417,"x_min":69,"x_max":429,"o":"m 219 0 l 69 0 l 69 931 l 219 931 l 219 0 m 429 379 l 281 379 l 281 551 l 429 551 l 429 379 z "},"Ł":{"ha":893,"x_min":14,"x_max":865,"o":"m 610 568 l 292 449 l 292 135 l 865 135 l 865 0 l 142 0 l 142 392 l 14 343 l 14 483 l 142 532 l 142 931 l 292 931 l 292 589 l 610 708 l 610 568 z "},"ł":{"ha":449,"x_min":-14,"x_max":463,"o":"m 307 0 l 157 0 l 157 460 l 32 394 l -14 485 l 157 574 l 157 931 l 307 931 l 307 653 l 417 710 l 463 619 l 307 538 l 307 0 z "},"Ń":{"ha":992,"x_min":69,"x_max":922,"o":"m 576 1014 l 418 1014 l 594 1190 l 806 1190 l 576 1014 m 219 0 l 69 0 l 69 931 l 231 931 l 647 386 l 768 213 l 779 213 l 772 381 l 772 931 l 922 931 l 922 0 l 761 0 l 342 543 l 225 707 l 214 707 l 219 546 l 219 0 z "},"ń":{"ha":854,"x_min":69,"x_max":790,"o":"m 508 778 l 351 778 l 529 958 l 739 958 l 508 778 m 219 0 l 69 0 l 69 690 l 207 690 l 207 476 l 217 476 q 307 638 233 572 q 504 704 381 704 q 716 623 642 704 q 790 415 790 542 l 790 0 l 640 0 l 640 375 q 592 522 640 474 q 439 569 544 569 q 219 342 219 569 l 219 0 z "},"Ņ":{"ha":992,"x_min":69,"x_max":922,"o":"m 219 0 l 69 0 l 69 931 l 231 931 l 647 386 l 768 213 l 779 213 l 772 381 l 772 931 l 922 931 l 922 0 l 761 0 l 342 543 l 225 707 l 214 707 l 219 546 l 219 0 m 435 -278 l 269 -278 l 401 -97 l 608 -97 l 435 -278 z "},"ņ":{"ha":854,"x_min":69,"x_max":790,"o":"m 219 0 l 69 0 l 69 690 l 207 690 l 207 476 l 217 476 q 307 638 233 572 q 504 704 381 704 q 716 623 642 704 q 790 415 790 542 l 790 0 l 640 0 l 640 375 q 592 522 640 474 q 439 569 544 569 q 219 342 219 569 l 219 0 m 364 -278 l 218 -278 l 339 -97 l 528 -97 l 364 -278 z "},"Ň":{"ha":992,"x_min":69,"x_max":922,"o":"m 606 1194 l 765 1194 l 583 1014 l 410 1014 l 228 1194 l 388 1194 l 490 1090 l 501 1090 l 606 1194 m 219 0 l 69 0 l 69 931 l 231 931 l 647 386 l 768 213 l 779 213 l 772 381 l 772 931 l 922 931 l 922 0 l 761 0 l 342 543 l 225 707 l 214 707 l 219 546 l 219 0 z "},"ň":{"ha":854,"x_min":69,"x_max":790,"o":"m 517 778 l 343 778 l 161 958 l 326 958 l 425 854 l 436 854 l 533 958 l 699 958 l 517 778 m 219 0 l 69 0 l 69 690 l 207 690 l 207 476 l 217 476 q 307 638 233 572 q 504 704 381 704 q 716 623 642 704 q 790 415 790 542 l 790 0 l 640 0 l 640 375 q 592 522 640 474 q 439 569 544 569 q 219 342 219 569 l 219 0 z "},"Ŋ":{"ha":992,"x_min":69,"x_max":922,"o":"m 676 -236 l 575 -236 l 575 -100 l 678 -100 q 746 -87 729 -100 q 763 -36 763 -75 l 764 -4 l 360 518 l 225 707 l 214 707 l 219 521 l 219 0 l 69 0 l 69 931 l 231 931 l 631 408 l 768 213 l 779 213 l 772 403 l 772 931 l 922 931 l 922 0 q 860 -183 922 -131 q 676 -236 797 -236 z "},"ŋ":{"ha":840,"x_min":63,"x_max":782,"o":"m 213 0 l 63 0 l 63 690 l 200 690 l 200 476 l 210 476 q 300 638 226 572 q 497 704 374 704 q 708 623 635 704 q 782 415 782 542 l 782 -32 q 538 -236 782 -236 l 494 -236 l 494 -121 l 543 -121 q 633 -35 633 -121 l 633 375 q 585 522 633 474 q 432 569 538 569 q 213 342 213 569 l 213 0 z "},"Ō":{"ha":1054,"x_min":42,"x_max":1013,"o":"m 733 1053 l 321 1053 l 321 1160 l 733 1160 l 733 1053 m 526 -14 q 174 117 307 -14 q 42 465 42 249 q 174 813 42 682 q 526 944 307 944 q 880 814 747 944 q 1013 465 1013 683 q 880 117 1013 247 q 526 -14 747 -14 m 280 211 q 320 171 280 211 q 526 131 360 131 q 774 212 693 131 q 854 465 854 293 q 774 720 854 639 q 526 801 693 801 q 280 720 360 801 q 200 465 200 639 q 280 211 200 292 z "},"ō":{"ha":846,"x_min":39,"x_max":807,"o":"m 628 815 l 217 815 l 217 922 l 628 922 l 628 815 m 701 85 q 648 36 701 85 q 422 -14 594 -14 q 144 85 250 -14 q 39 344 39 185 q 144 605 39 506 q 422 704 250 704 q 701 605 594 704 q 807 344 807 506 q 701 85 807 185 m 422 119 q 603 176 546 119 q 660 344 660 232 q 603 515 660 457 q 422 572 546 572 q 186 344 186 572 q 243 176 186 232 q 422 119 300 119 z "},"Ŏ":{"ha":1054,"x_min":42,"x_max":1013,"o":"m 673 1046 q 645 1023 673 1046 q 528 1000 618 1000 q 382 1046 438 1000 q 326 1167 326 1092 l 326 1182 l 435 1182 l 435 1168 q 456 1113 435 1131 q 528 1094 478 1094 q 599 1113 579 1094 q 619 1168 619 1131 l 619 1182 l 728 1182 l 728 1167 q 673 1046 728 1092 m 526 -14 q 174 117 307 -14 q 42 465 42 249 q 174 813 42 682 q 526 944 307 944 q 880 814 747 944 q 1013 465 1013 683 q 880 117 1013 247 q 526 -14 747 -14 m 280 211 q 320 171 280 211 q 526 131 360 131 q 774 212 693 131 q 854 465 854 293 q 774 720 854 639 q 526 801 693 801 q 280 720 360 801 q 200 465 200 639 q 280 211 200 292 z "},"ŏ":{"ha":846,"x_min":39,"x_max":807,"o":"m 568 810 q 540 787 568 810 q 422 764 513 764 q 277 810 332 764 q 222 931 222 856 l 222 954 l 331 954 l 331 932 q 351 874 331 892 q 422 857 371 857 q 495 874 475 857 q 515 932 515 892 l 515 954 l 624 954 l 624 931 q 568 810 624 856 m 701 85 q 648 36 701 85 q 422 -14 594 -14 q 144 85 250 -14 q 39 344 39 185 q 144 605 39 506 q 422 704 250 704 q 701 605 594 704 q 807 344 807 506 q 701 85 807 185 m 422 119 q 603 176 546 119 q 660 344 660 232 q 603 515 660 457 q 422 572 546 572 q 186 344 186 572 q 243 176 186 232 q 422 119 300 119 z "},"Ő":{"ha":1054,"x_min":42,"x_max":1013,"o":"m 718 1014 l 569 1014 l 701 1190 l 892 1190 l 718 1014 m 433 1014 l 286 1014 l 417 1190 l 608 1190 l 433 1014 m 526 -14 q 174 117 307 -14 q 42 465 42 249 q 174 813 42 682 q 526 944 307 944 q 880 814 747 944 q 1013 465 1013 683 q 880 117 1013 247 q 526 -14 747 -14 m 280 211 q 320 171 280 211 q 526 131 360 131 q 774 212 693 131 q 854 465 854 293 q 774 720 854 639 q 526 801 693 801 q 280 720 360 801 q 200 465 200 639 q 280 211 200 292 z "},"ő":{"ha":846,"x_min":39,"x_max":807,"o":"m 626 778 l 479 778 l 610 958 l 800 958 l 626 778 m 343 778 l 194 778 l 325 958 l 517 958 l 343 778 m 701 85 q 648 36 701 85 q 422 -14 594 -14 q 144 85 250 -14 q 39 344 39 185 q 144 605 39 506 q 422 704 250 704 q 701 605 594 704 q 807 344 807 506 q 701 85 807 185 m 422 119 q 603 176 546 119 q 660 344 660 232 q 603 515 660 457 q 422 572 546 572 q 186 344 186 572 q 243 176 186 232 q 422 119 300 119 z "},"Œ":{"ha":1524,"x_min":42,"x_max":1476,"o":"m 1476 0 l 521 0 q 169 124 297 0 q 42 465 42 249 q 169 806 42 682 q 521 931 297 931 l 1476 931 l 1476 796 l 882 796 l 882 535 l 1456 535 l 1456 401 l 882 401 l 882 135 l 1476 135 l 1476 0 m 521 135 l 732 135 l 732 796 l 521 796 q 276 719 353 796 q 200 465 200 643 q 276 211 200 288 q 521 135 353 135 z "},"œ":{"ha":1442,"x_min":39,"x_max":1400,"o":"m 422 -14 q 144 85 250 -14 q 39 344 39 185 q 144 605 39 506 q 422 704 250 704 q 736 567 629 704 q 1040 704 838 704 q 1301 617 1203 704 q 1400 376 1400 531 q 1394 311 1400 353 l 807 311 q 866 158 811 208 q 1038 107 921 107 q 1243 236 1243 107 l 1243 247 l 1392 247 l 1392 235 q 1294 56 1392 125 q 1043 -14 1197 -14 q 733 121 832 -14 q 422 -14 628 -14 m 1038 586 q 808 394 821 586 l 1258 394 l 1258 397 q 1038 586 1258 586 m 422 119 q 603 176 546 119 q 660 344 660 232 q 603 515 660 457 q 422 572 546 572 q 186 344 186 572 q 243 176 186 232 q 422 119 300 119 z "},"Ŕ":{"ha":933,"x_min":69,"x_max":913,"o":"m 558 1014 l 399 1014 l 576 1190 l 786 1190 l 558 1014 m 219 0 l 69 0 l 69 931 l 553 931 q 803 858 713 931 q 894 657 894 786 q 822 474 894 542 q 618 399 750 406 l 618 389 q 699 347 668 375 q 757 269 729 319 l 913 0 l 740 0 l 592 257 q 517 338 558 315 q 390 361 475 361 l 219 361 l 219 0 m 219 796 l 219 476 l 551 476 q 693 513 647 476 q 739 636 739 550 q 693 758 739 719 q 551 796 647 796 l 219 796 z "},"ŕ":{"ha":704,"x_min":69,"x_max":682,"o":"m 453 778 l 294 778 l 472 958 l 682 958 l 453 778 m 219 0 l 69 0 l 69 690 l 207 690 l 207 504 l 217 504 q 293 649 233 593 q 454 704 353 704 q 622 635 565 704 q 679 461 679 567 l 679 371 l 531 371 l 531 432 q 497 542 531 507 q 386 576 463 576 q 259 529 299 576 q 219 388 219 482 l 219 0 z "},"Ŗ":{"ha":933,"x_min":69,"x_max":913,"o":"m 219 0 l 69 0 l 69 931 l 553 931 q 803 858 713 931 q 894 657 894 786 q 822 474 894 542 q 618 399 750 406 l 618 389 q 699 347 668 375 q 757 269 729 319 l 913 0 l 740 0 l 592 257 q 517 338 558 315 q 390 361 475 361 l 219 361 l 219 0 m 219 796 l 219 476 l 551 476 q 693 513 647 476 q 739 636 739 550 q 693 758 739 719 q 551 796 647 796 l 219 796 m 415 -278 l 250 -278 l 383 -97 l 590 -97 l 415 -278 z "},"ŗ":{"ha":704,"x_min":-72,"x_max":679,"o":"m 219 0 l 69 0 l 69 690 l 207 690 l 207 504 l 217 504 q 293 649 233 593 q 454 704 353 704 q 622 635 565 704 q 679 461 679 567 l 679 371 l 531 371 l 531 432 q 497 542 531 507 q 386 576 463 576 q 259 529 299 576 q 219 388 219 482 l 219 0 m 74 -278 l -72 -278 l 49 -97 l 236 -97 l 74 -278 z "},"Ř":{"ha":933,"x_min":69,"x_max":913,"o":"m 588 1194 l 746 1194 l 564 1014 l 392 1014 l 208 1194 l 369 1194 l 472 1090 l 483 1090 l 588 1194 m 219 0 l 69 0 l 69 931 l 553 931 q 803 858 713 931 q 894 657 894 786 q 822 474 894 542 q 618 399 750 406 l 618 389 q 699 347 668 375 q 757 269 729 319 l 913 0 l 740 0 l 592 257 q 517 338 558 315 q 390 361 475 361 l 219 361 l 219 0 m 219 796 l 219 476 l 551 476 q 693 513 647 476 q 739 636 739 550 q 693 758 739 719 q 551 796 647 796 l 219 796 z "},"ř":{"ha":704,"x_min":69,"x_max":679,"o":"m 460 778 l 288 778 l 106 958 l 271 958 l 368 854 l 379 854 l 478 958 l 643 958 l 460 778 m 219 0 l 69 0 l 69 690 l 207 690 l 207 504 l 217 504 q 293 649 233 593 q 454 704 353 704 q 622 635 565 704 q 679 461 679 567 l 679 371 l 531 371 l 531 432 q 497 542 531 507 q 386 576 463 576 q 259 529 299 576 q 219 388 219 482 l 219 0 z "},"Ś":{"ha":888,"x_min":39,"x_max":850,"o":"m 521 1014 l 361 1014 l 539 1190 l 749 1190 l 521 1014 m 460 -14 q 148 70 256 -14 q 40 304 40 154 l 40 313 l 190 313 l 190 290 q 251 164 190 204 q 460 124 311 124 q 645 153 590 124 q 700 250 700 183 q 663 338 700 308 q 535 383 626 367 l 307 421 q 39 674 39 468 q 138 865 39 786 q 439 944 238 944 q 735 857 635 944 q 835 626 835 769 l 835 618 l 686 618 l 686 636 q 626 765 686 724 q 425 807 567 807 q 244 776 300 807 q 189 682 189 746 q 224 597 189 624 q 346 551 260 569 l 572 513 q 850 258 850 463 q 752 65 850 143 q 460 -14 654 -14 z "},"ś":{"ha":757,"x_min":40,"x_max":718,"o":"m 453 778 l 294 778 l 472 958 l 682 958 l 453 778 m 396 -14 q 138 50 229 -14 q 47 233 47 114 l 47 238 l 197 238 l 197 226 q 242 133 197 160 q 396 107 286 107 q 533 128 494 107 q 571 196 571 149 q 542 256 571 238 q 439 285 514 274 l 250 310 q 40 497 40 336 q 124 647 40 590 q 363 704 207 704 q 613 640 524 704 q 701 456 701 576 l 701 451 l 553 451 l 553 460 q 510 555 553 525 q 358 585 468 585 q 226 563 265 585 q 188 492 188 542 q 215 433 188 451 q 319 404 242 414 l 479 382 q 660 322 603 367 q 718 192 718 276 q 631 41 718 96 q 396 -14 543 -14 z "},"Ŝ":{"ha":888,"x_min":39,"x_max":850,"o":"m 331 1014 l 172 1014 l 354 1194 l 526 1194 l 708 1014 l 549 1014 l 446 1118 l 435 1118 l 331 1014 m 460 -14 q 148 70 256 -14 q 40 304 40 154 l 40 313 l 190 313 l 190 290 q 251 164 190 204 q 460 124 311 124 q 645 153 590 124 q 700 250 700 183 q 663 338 700 308 q 535 383 626 367 l 307 421 q 39 674 39 468 q 138 865 39 786 q 439 944 238 944 q 735 857 635 944 q 835 626 835 769 l 835 618 l 686 618 l 686 636 q 626 765 686 724 q 425 807 567 807 q 244 776 300 807 q 189 682 189 746 q 224 597 189 624 q 346 551 260 569 l 572 513 q 850 258 850 463 q 752 65 850 143 q 460 -14 654 -14 z "},"ŝ":{"ha":757,"x_min":40,"x_max":718,"o":"m 264 778 l 106 778 l 288 958 l 460 958 l 643 778 l 482 778 l 379 882 l 368 882 l 264 778 m 396 -14 q 138 50 229 -14 q 47 233 47 114 l 47 238 l 197 238 l 197 226 q 242 133 197 160 q 396 107 286 107 q 533 128 494 107 q 571 196 571 149 q 542 256 571 238 q 439 285 514 274 l 250 310 q 40 497 40 336 q 124 647 40 590 q 363 704 207 704 q 613 640 524 704 q 701 456 701 576 l 701 451 l 553 451 l 553 460 q 510 555 553 525 q 358 585 468 585 q 226 563 265 585 q 188 492 188 542 q 215 433 188 451 q 319 404 242 414 l 479 382 q 660 322 603 367 q 718 192 718 276 q 631 41 718 96 q 396 -14 543 -14 z "},"Ş":{"ha":888,"x_min":39,"x_max":850,"o":"m 460 -14 l 458 -14 l 458 -71 l 488 -71 q 583 -101 549 -71 q 618 -183 618 -132 q 584 -268 618 -237 q 488 -299 550 -299 l 364 -299 l 364 -214 l 489 -214 q 526 -185 526 -214 q 489 -154 526 -154 l 374 -154 l 374 -10 q 125 90 210 8 q 40 304 40 171 l 40 313 l 190 313 l 190 290 q 251 164 190 204 q 460 124 311 124 q 645 153 590 124 q 700 250 700 183 q 663 338 700 308 q 535 383 626 367 l 307 421 q 39 674 39 468 q 138 865 39 786 q 439 944 238 944 q 735 857 635 944 q 835 626 835 769 l 835 618 l 686 618 l 686 636 q 626 765 686 724 q 425 807 567 807 q 244 776 300 807 q 189 682 189 746 q 224 597 189 624 q 346 551 260 569 l 572 513 q 850 258 850 463 q 752 65 850 143 q 460 -14 654 -14 z "},"ş":{"ha":757,"x_min":40,"x_max":718,"o":"m 454 -299 l 332 -299 l 332 -214 l 456 -214 q 493 -185 493 -214 q 456 -154 493 -154 l 340 -154 l 340 -12 q 123 62 199 -1 q 47 233 47 125 l 47 238 l 197 238 l 197 226 q 242 133 197 160 q 396 107 286 107 q 533 128 494 107 q 571 196 571 149 q 542 256 571 238 q 439 285 514 274 l 250 310 q 40 497 40 336 q 124 647 40 590 q 363 704 207 704 q 613 640 524 704 q 701 456 701 576 l 701 451 l 553 451 l 553 460 q 510 555 553 525 q 358 585 468 585 q 226 563 265 585 q 188 492 188 542 q 215 433 188 451 q 319 404 242 414 l 479 382 q 660 322 603 367 q 718 192 718 276 q 639 47 718 101 q 425 -14 560 -7 l 425 -71 l 454 -71 q 550 -101 515 -71 q 585 -183 585 -132 q 551 -268 585 -237 q 454 -299 517 -299 z "},"Š":{"ha":888,"x_min":39,"x_max":850,"o":"m 550 1194 l 708 1194 l 528 1014 l 354 1014 l 172 1194 l 332 1194 l 435 1090 l 446 1090 l 550 1194 m 460 -14 q 148 70 256 -14 q 40 304 40 154 l 40 313 l 190 313 l 190 290 q 251 164 190 204 q 460 124 311 124 q 645 153 590 124 q 700 250 700 183 q 663 338 700 308 q 535 383 626 367 l 307 421 q 39 674 39 468 q 138 865 39 786 q 439 944 238 944 q 735 857 635 944 q 835 626 835 769 l 835 618 l 686 618 l 686 636 q 626 765 686 724 q 425 807 567 807 q 244 776 300 807 q 189 682 189 746 q 224 597 189 624 q 346 551 260 569 l 572 513 q 850 258 850 463 q 752 65 850 143 q 460 -14 654 -14 z "},"š":{"ha":757,"x_min":40,"x_max":718,"o":"m 460 778 l 288 778 l 106 958 l 269 958 l 368 854 l 379 854 l 478 958 l 643 958 l 460 778 m 396 -14 q 138 50 229 -14 q 47 233 47 114 l 47 238 l 197 238 l 197 226 q 242 133 197 160 q 396 107 286 107 q 533 128 494 107 q 571 196 571 149 q 542 256 571 238 q 439 285 514 274 l 250 310 q 40 497 40 336 q 124 647 40 590 q 363 704 207 704 q 613 640 524 704 q 701 456 701 576 l 701 451 l 553 451 l 553 460 q 510 555 553 525 q 358 585 468 585 q 226 563 265 585 q 188 492 188 542 q 215 433 188 451 q 319 404 242 414 l 479 382 q 660 322 603 367 q 718 192 718 276 q 631 41 718 96 q 396 -14 543 -14 z "},"Ţ":{"ha":915,"x_min":17,"x_max":897,"o":"m 532 0 l 465 0 l 465 -71 l 494 -71 q 590 -101 556 -71 q 625 -183 625 -132 q 591 -268 625 -237 q 494 -299 557 -299 l 371 -299 l 371 -214 l 496 -214 q 533 -185 533 -214 q 496 -154 533 -154 l 381 -154 l 381 4 l 383 4 l 383 796 l 17 796 l 17 931 l 897 931 l 897 796 l 532 796 l 532 0 z "},"ţ":{"ha":547,"x_min":7,"x_max":574,"o":"m 522 0 l 414 0 l 414 -71 l 443 -71 q 540 -101 506 -71 q 574 -183 574 -132 q 540 -268 574 -237 q 443 -299 506 -299 l 321 -299 l 321 -214 l 444 -214 q 482 -185 482 -214 q 444 -154 482 -154 l 329 -154 l 329 1 q 124 233 124 17 l 124 565 l 7 565 l 7 690 l 124 690 l 124 842 l 272 842 l 272 690 l 522 690 l 522 565 l 272 565 l 272 242 q 301 158 272 181 q 397 135 331 135 l 522 135 l 522 0 z "},"Ť":{"ha":915,"x_min":17,"x_max":897,"o":"m 567 1194 l 726 1194 l 544 1014 l 372 1014 l 189 1194 l 350 1194 l 453 1090 l 464 1090 l 567 1194 m 532 0 l 383 0 l 383 796 l 17 796 l 17 931 l 897 931 l 897 796 l 532 796 l 532 0 z "},"ť":{"ha":507,"x_min":7,"x_max":522,"o":"m 379 763 l 342 763 l 342 838 l 376 838 q 398 844 392 838 q 404 867 404 850 l 404 890 l 340 890 l 340 1064 l 485 1064 l 485 868 q 379 763 485 763 m 522 0 l 364 0 q 124 233 124 0 l 124 565 l 7 565 l 7 690 l 124 690 l 124 842 l 272 842 l 272 690 l 522 690 l 522 565 l 272 565 l 272 242 q 301 158 272 181 q 397 135 331 135 l 522 135 l 522 0 z "},"Ŧ":{"ha":915,"x_min":17,"x_max":897,"o":"m 532 0 l 383 0 l 383 418 l 161 418 l 161 553 l 383 553 l 383 796 l 17 796 l 17 931 l 897 931 l 897 796 l 532 796 l 532 553 l 756 553 l 756 418 l 532 418 l 532 0 z "},"ŧ":{"ha":547,"x_min":7,"x_max":522,"o":"m 522 0 l 364 0 q 124 233 124 0 l 124 340 l 7 340 l 7 450 l 124 450 l 124 579 l 7 579 l 7 690 l 124 690 l 124 842 l 272 842 l 272 690 l 522 690 l 522 579 l 272 579 l 272 450 l 522 450 l 522 340 l 272 340 l 272 242 q 301 158 272 181 q 397 135 331 135 l 522 135 l 522 0 z "},"Ũ":{"ha":1001,"x_min":64,"x_max":938,"o":"m 375 1022 l 274 1022 l 274 1078 q 385 1203 274 1203 q 492 1167 426 1203 l 526 1147 q 589 1124 564 1124 q 628 1171 628 1124 l 628 1197 l 729 1197 l 729 1143 q 703 1051 729 1085 q 624 1017 676 1017 q 514 1053 576 1017 l 469 1075 q 410 1099 435 1099 q 375 1056 375 1099 l 375 1022 m 823 91 q 766 39 823 91 q 500 -14 708 -14 q 178 91 292 -14 q 64 386 64 196 l 64 931 l 213 931 l 213 396 q 280 193 213 256 q 500 131 347 131 q 720 193 653 131 q 788 396 788 256 l 788 931 l 938 931 l 938 386 q 823 91 938 196 z "},"ũ":{"ha":861,"x_min":68,"x_max":794,"o":"m 304 786 l 203 786 l 203 843 q 315 967 203 967 q 421 931 356 967 l 457 911 q 519 888 494 888 q 557 935 557 888 l 557 961 l 658 961 l 658 907 q 632 815 658 849 q 553 781 606 781 q 443 817 506 781 l 400 839 q 340 863 363 863 q 304 821 304 863 l 304 786 m 357 -14 q 142 67 217 -14 q 68 275 68 149 l 68 690 l 217 690 l 217 315 q 266 169 217 217 q 422 121 315 121 q 646 349 646 121 l 646 690 l 794 690 l 794 0 l 657 0 l 657 214 l 649 214 q 556 51 631 117 q 357 -14 482 -14 z "},"Ū":{"ha":1001,"x_min":64,"x_max":938,"o":"m 706 1053 l 294 1053 l 294 1160 l 706 1160 l 706 1053 m 823 91 q 766 39 823 91 q 500 -14 708 -14 q 178 91 292 -14 q 64 386 64 196 l 64 931 l 213 931 l 213 396 q 280 193 213 256 q 500 131 347 131 q 720 193 653 131 q 788 396 788 256 l 788 931 l 938 931 l 938 386 q 823 91 938 196 z "},"ū":{"ha":861,"x_min":68,"x_max":794,"o":"m 636 815 l 225 815 l 225 922 l 636 922 l 636 815 m 357 -14 q 142 67 217 -14 q 68 275 68 149 l 68 690 l 217 690 l 217 315 q 266 169 217 217 q 422 121 315 121 q 646 349 646 121 l 646 690 l 794 690 l 794 0 l 657 0 l 657 214 l 649 214 q 556 51 631 117 q 357 -14 482 -14 z "},"Ŭ":{"ha":1001,"x_min":64,"x_max":938,"o":"m 646 1046 q 618 1023 646 1046 q 500 1000 590 1000 q 355 1046 410 1000 q 300 1167 300 1092 l 300 1182 l 408 1182 l 408 1168 q 429 1113 408 1131 q 500 1094 450 1094 q 573 1112 553 1094 q 593 1168 593 1129 l 593 1182 l 701 1182 l 701 1167 q 646 1046 701 1092 m 823 91 q 766 39 823 91 q 500 -14 708 -14 q 178 91 292 -14 q 64 386 64 196 l 64 931 l 213 931 l 213 396 q 280 193 213 256 q 500 131 347 131 q 720 193 653 131 q 788 396 788 256 l 788 931 l 938 931 l 938 386 q 823 91 938 196 z "},"ŭ":{"ha":861,"x_min":68,"x_max":794,"o":"m 576 810 q 549 787 576 810 q 431 764 521 764 q 285 810 340 764 q 231 931 231 856 l 231 954 l 339 954 l 339 932 q 359 874 339 892 q 431 857 379 857 q 503 874 483 857 q 524 932 524 892 l 524 954 l 632 954 l 632 931 q 576 810 632 856 m 357 -14 q 142 67 217 -14 q 68 275 68 149 l 68 690 l 217 690 l 217 315 q 266 169 217 217 q 422 121 315 121 q 646 349 646 121 l 646 690 l 794 690 l 794 0 l 657 0 l 657 214 l 649 214 q 556 51 631 117 q 357 -14 482 -14 z "},"Ů":{"ha":1001,"x_min":64,"x_max":938,"o":"m 613 1003 q 591 984 613 1003 q 500 965 569 965 q 388 1003 431 965 q 344 1100 344 1040 q 388 1199 344 1161 q 500 1236 431 1236 q 613 1199 569 1236 q 657 1100 657 1161 q 613 1003 657 1040 m 425 1100 q 500 1039 425 1039 q 575 1100 575 1039 q 500 1163 575 1163 q 425 1100 425 1163 m 823 91 q 766 39 823 91 q 500 -14 708 -14 q 178 91 292 -14 q 64 386 64 196 l 64 931 l 213 931 l 213 396 q 280 193 213 256 q 500 131 347 131 q 720 193 653 131 q 788 396 788 256 l 788 931 l 938 931 l 938 386 q 823 91 938 196 z "},"ů":{"ha":861,"x_min":68,"x_max":794,"o":"m 431 756 q 329 789 368 756 q 290 878 290 822 q 329 967 290 933 q 431 1000 368 1000 q 533 967 494 1000 q 572 878 572 933 q 533 789 572 822 q 431 756 494 756 m 360 878 q 360 849 360 878 q 431 821 360 821 q 501 878 501 821 q 431 935 501 935 q 360 878 360 935 m 357 -14 q 142 67 217 -14 q 68 275 68 149 l 68 690 l 217 690 l 217 315 q 266 169 217 217 q 422 121 315 121 q 646 349 646 121 l 646 690 l 794 690 l 794 0 l 657 0 l 657 214 l 649 214 q 556 51 631 117 q 357 -14 482 -14 z "},"Ű":{"ha":1001,"x_min":64,"x_max":938,"o":"m 690 1014 l 543 1014 l 674 1190 l 865 1190 l 690 1014 m 407 1014 l 260 1014 l 389 1190 l 581 1190 l 407 1014 m 823 91 q 766 39 823 91 q 500 -14 708 -14 q 178 91 292 -14 q 64 386 64 196 l 64 931 l 213 931 l 213 396 q 280 193 213 256 q 500 131 347 131 q 720 193 653 131 q 788 396 788 256 l 788 931 l 938 931 l 938 386 q 823 91 938 196 z "},"ű":{"ha":861,"x_min":68,"x_max":808,"o":"m 635 778 l 486 778 l 618 958 l 808 958 l 635 778 m 350 778 l 203 778 l 333 958 l 525 958 l 350 778 m 357 -14 q 142 67 217 -14 q 68 275 68 149 l 68 690 l 217 690 l 217 315 q 266 169 217 217 q 422 121 315 121 q 646 349 646 121 l 646 690 l 794 690 l 794 0 l 657 0 l 657 214 l 649 214 q 556 51 631 117 q 357 -14 482 -14 z "},"Ų":{"ha":1001,"x_min":64,"x_max":938,"o":"m 651 -260 l 539 -260 q 406 -164 406 -260 q 417 -117 406 -140 q 437 -82 428 -93 q 469 -44 446 -71 l 497 -14 q 177 92 290 -12 q 64 386 64 197 l 64 931 l 213 931 l 213 396 q 280 193 213 256 q 500 131 347 131 q 720 193 653 131 q 788 396 788 256 l 788 931 l 938 931 l 938 386 q 851 121 938 222 q 604 -6 765 19 l 550 -75 q 522 -131 522 -110 q 569 -165 522 -165 l 651 -165 l 651 -260 z "},"ų":{"ha":861,"x_min":68,"x_max":836,"o":"m 357 -14 q 142 67 217 -14 q 68 275 68 149 l 68 690 l 217 690 l 217 315 q 266 169 217 217 q 422 121 315 121 q 646 349 646 121 l 646 690 l 794 690 l 794 0 l 735 -75 q 707 -131 707 -110 q 754 -165 707 -165 l 836 -165 l 836 -260 l 724 -260 q 590 -164 590 -260 q 601 -117 590 -140 q 622 -82 613 -93 q 654 -44 631 -71 l 694 0 l 657 0 l 657 214 l 649 214 q 556 51 631 117 q 357 -14 482 -14 z "},"Ŵ":{"ha":1471,"x_min":19,"x_max":1451,"o":"m 626 1014 l 467 1014 l 649 1194 l 822 1194 l 1004 1014 l 844 1014 l 742 1118 l 731 1118 l 626 1014 m 486 0 l 265 0 l 19 931 l 186 931 l 338 342 l 379 144 l 390 144 l 440 342 l 628 931 l 846 931 l 1046 342 l 1099 144 l 1110 144 l 1149 342 l 1288 931 l 1451 931 l 1218 0 l 997 0 l 810 542 l 742 781 l 729 781 l 663 542 l 486 0 z "},"ŵ":{"ha":1224,"x_min":7,"x_max":1217,"o":"m 503 778 l 343 778 l 525 958 l 697 958 l 881 778 l 721 778 l 617 882 l 606 882 l 503 778 m 400 0 l 214 0 l 7 690 l 163 690 l 278 299 l 310 121 l 321 121 l 372 313 l 517 690 l 708 690 l 854 313 l 906 121 l 917 121 l 949 299 l 1064 690 l 1217 690 l 1007 0 l 821 0 l 669 397 l 617 567 l 606 567 l 553 397 l 400 0 z "},"Ŷ":{"ha":950,"x_min":-10,"x_max":961,"o":"m 367 1014 l 207 1014 l 389 1194 l 561 1194 l 744 1014 l 583 1014 l 481 1118 l 469 1118 l 367 1014 m 547 0 l 399 0 l 399 321 l -10 931 l 174 931 l 393 600 l 471 482 l 482 482 l 558 600 l 776 931 l 961 931 l 547 318 l 547 0 z "},"ŷ":{"ha":821,"x_min":0,"x_max":817,"o":"m 299 778 l 139 778 l 321 958 l 494 958 l 676 778 l 517 778 l 414 882 l 403 882 l 299 778 m 181 -236 l 82 -236 l 82 -100 l 217 -100 q 285 -86 263 -100 q 324 -36 308 -72 l 340 0 l 0 690 l 168 690 l 344 324 l 413 158 l 424 158 l 489 325 l 651 690 l 817 690 l 457 -75 q 352 -201 415 -165 q 181 -236 289 -236 z "},"Ÿ":{"ha":950,"x_min":-10,"x_max":961,"o":"m 676 1014 l 533 1014 l 533 1186 l 676 1186 l 676 1014 m 417 1014 l 274 1014 l 274 1186 l 417 1186 l 417 1014 m 547 0 l 399 0 l 399 321 l -10 931 l 174 931 l 393 600 l 471 482 l 482 482 l 558 600 l 776 931 l 961 931 l 547 318 l 547 0 z "},"Ź":{"ha":935,"x_min":46,"x_max":889,"o":"m 547 1014 l 389 1014 l 567 1190 l 776 1190 l 547 1014 m 889 0 l 46 0 l 46 135 l 653 785 l 653 796 l 64 796 l 64 931 l 874 931 l 874 796 l 256 146 l 256 135 l 889 135 l 889 0 z "},"ź":{"ha":779,"x_min":32,"x_max":747,"o":"m 468 778 l 310 778 l 488 958 l 697 958 l 468 778 m 747 0 l 32 0 l 32 129 l 383 443 l 529 553 l 529 564 l 383 558 l 53 558 l 53 690 l 726 690 l 726 561 l 350 231 l 222 136 l 222 125 l 350 132 l 747 132 l 747 0 z "},"Ż":{"ha":935,"x_min":46,"x_max":889,"o":"m 542 1014 l 393 1014 l 393 1186 l 542 1186 l 542 1014 m 889 0 l 46 0 l 46 135 l 653 785 l 653 796 l 64 796 l 64 931 l 874 931 l 874 796 l 256 146 l 256 135 l 889 135 l 889 0 z "},"ż":{"ha":779,"x_min":32,"x_max":747,"o":"m 464 778 l 315 778 l 315 950 l 464 950 l 464 778 m 747 0 l 32 0 l 32 129 l 383 443 l 529 553 l 529 564 l 383 558 l 53 558 l 53 690 l 726 690 l 726 561 l 350 231 l 222 136 l 222 125 l 350 132 l 747 132 l 747 0 z "},"Ž":{"ha":935,"x_min":46,"x_max":889,"o":"m 576 1194 l 736 1194 l 554 1014 l 382 1014 l 199 1194 l 360 1194 l 463 1090 l 474 1090 l 576 1194 m 889 0 l 46 0 l 46 135 l 653 785 l 653 796 l 64 796 l 64 931 l 874 931 l 874 796 l 256 146 l 256 135 l 889 135 l 889 0 z "},"ž":{"ha":779,"x_min":32,"x_max":747,"o":"m 475 778 l 303 778 l 121 958 l 286 958 l 383 854 l 394 854 l 493 958 l 658 958 l 475 778 m 747 0 l 32 0 l 32 129 l 383 443 l 529 553 l 529 564 l 383 558 l 53 558 l 53 690 l 726 690 l 726 561 l 350 231 l 222 136 l 222 125 l 350 132 l 747 132 l 747 0 z "},"ƒ":{"ha":717,"x_min":-14,"x_max":731,"o":"m 58 -236 l -14 -236 l 10 -101 l 67 -101 q 181 -76 147 -101 q 226 21 214 -50 l 292 399 l 143 399 l 167 532 l 315 532 l 339 667 q 444 867 363 803 q 676 931 526 931 l 731 931 l 707 796 l 649 796 q 536 770 569 796 q 490 674 503 744 l 465 532 l 661 532 l 636 399 l 442 399 l 376 28 q 277 -175 351 -114 q 58 -236 203 -236 z "},"Ǽ":{"ha":1574,"x_min":-6,"x_max":1526,"o":"m 1233 1014 l 1075 1014 l 1251 1190 l 1463 1190 l 1233 1014 m 179 0 l -6 0 l 699 931 l 1526 931 l 1526 796 l 931 796 l 931 535 l 1506 535 l 1506 401 l 931 401 l 931 135 l 1526 135 l 1526 0 l 782 0 l 782 242 l 361 242 l 179 0 m 772 786 l 463 376 l 782 376 l 782 786 l 772 786 z "},"ǽ":{"ha":1346,"x_min":35,"x_max":1319,"o":"m 756 778 l 597 778 l 775 958 l 985 958 l 756 778 m 279 -14 q 101 34 167 -14 q 35 167 35 82 q 258 346 35 324 l 588 381 l 588 418 q 545 538 588 503 q 399 572 503 572 q 248 538 296 572 q 200 429 200 504 l 200 419 l 50 419 l 50 429 q 144 627 50 550 q 401 704 239 704 q 675 590 594 704 q 960 704 778 704 q 1221 617 1122 704 q 1319 376 1319 531 q 1314 311 1319 353 l 726 311 q 785 158 731 208 q 957 107 840 107 q 1163 236 1163 107 l 1163 247 l 1311 247 l 1311 235 q 1214 56 1311 125 q 963 -14 1117 -14 q 746 38 836 -14 q 617 186 656 89 l 608 186 q 490 38 578 89 q 279 -14 401 -14 m 957 586 q 728 394 740 586 l 1178 394 l 1178 397 q 957 586 1178 586 m 185 176 q 315 94 185 94 q 590 286 576 94 l 590 289 l 300 258 q 213 233 242 251 q 185 176 185 215 z "},"Ǿ":{"ha":1054,"x_min":38,"x_max":1013,"o":"m 607 1014 l 449 1014 l 626 1190 l 836 1190 l 607 1014 m 526 -14 q 218 79 343 -14 l 113 -26 l 38 51 l 140 156 q 42 465 42 278 q 174 813 42 682 q 526 944 307 944 q 833 853 707 944 l 936 956 l 1011 878 l 913 778 q 1013 465 1013 651 q 880 117 1013 247 q 526 -14 747 -14 m 200 465 q 244 260 200 335 l 733 751 q 526 801 656 801 q 280 720 360 801 q 200 465 200 639 m 526 131 q 774 212 693 131 q 854 465 854 293 q 808 674 854 597 l 318 181 q 526 131 394 131 z "},"ǿ":{"ha":846,"x_min":39,"x_max":807,"o":"m 501 778 l 343 778 l 521 958 l 731 958 l 501 778 m 422 -14 q 182 56 279 -14 l 99 -25 l 39 38 l 118 114 q 39 344 39 208 q 144 605 39 506 q 422 704 250 704 q 657 640 558 704 l 733 714 l 792 651 l 722 583 q 807 344 807 488 q 701 85 807 185 q 422 -14 594 -14 m 186 344 q 217 210 186 263 l 560 544 q 422 572 507 572 q 186 344 186 572 m 422 119 q 603 176 546 119 q 660 344 660 232 q 625 489 660 433 l 278 150 q 422 119 331 119 z "},"Ș":{"ha":888,"x_min":39,"x_max":850,"o":"m 460 -14 q 148 70 256 -14 q 40 304 40 154 l 40 313 l 190 313 l 190 290 q 251 164 190 204 q 460 124 311 124 q 645 153 590 124 q 700 250 700 183 q 663 338 700 308 q 535 383 626 367 l 307 421 q 39 674 39 468 q 138 865 39 786 q 439 944 238 944 q 735 857 635 944 q 835 626 835 769 l 835 618 l 686 618 l 686 636 q 626 765 686 724 q 425 807 567 807 q 244 776 300 807 q 189 682 189 746 q 224 597 189 624 q 346 551 260 569 l 572 513 q 850 258 850 463 q 752 65 850 143 q 460 -14 654 -14 m 415 -278 l 250 -278 l 383 -97 l 590 -97 l 415 -278 z "},"ș":{"ha":757,"x_min":40,"x_max":718,"o":"m 396 -14 q 138 50 229 -14 q 47 233 47 114 l 47 238 l 197 238 l 197 226 q 242 133 197 160 q 396 107 286 107 q 533 128 494 107 q 571 196 571 149 q 542 256 571 238 q 439 285 514 274 l 250 310 q 40 497 40 336 q 124 647 40 590 q 363 704 207 704 q 613 640 524 704 q 701 456 701 576 l 701 451 l 553 451 l 553 460 q 510 555 553 525 q 358 585 468 585 q 226 563 265 585 q 188 492 188 542 q 215 433 188 451 q 319 404 242 414 l 479 382 q 660 322 603 367 q 718 192 718 276 q 631 41 718 96 q 396 -14 543 -14 m 319 -278 l 174 -278 l 294 -97 l 483 -97 l 319 -278 z "},"Ț":{"ha":915,"x_min":17,"x_max":897,"o":"m 532 0 l 383 0 l 383 796 l 17 796 l 17 931 l 897 931 l 897 796 l 532 796 l 532 0 m 422 -278 l 257 -278 l 390 -97 l 597 -97 l 422 -278 z "},"ț":{"ha":547,"x_min":7,"x_max":522,"o":"m 522 0 l 364 0 q 124 233 124 0 l 124 565 l 7 565 l 7 690 l 124 690 l 124 842 l 272 842 l 272 690 l 522 690 l 522 565 l 272 565 l 272 242 q 301 158 272 181 q 397 135 331 135 l 522 135 l 522 0 m 308 -278 l 163 -278 l 283 -97 l 472 -97 l 308 -278 z "},"ȷ":{"ha":290,"x_min":-67,"x_max":221,"o":"m -24 -236 l -67 -236 l -67 -121 l -19 -121 q 71 -35 71 -121 l 71 690 l 221 690 l 221 -8 q 157 -183 221 -131 q -24 -236 93 -236 z "},"̀":{"ha":501,"x_min":-51,"x_max":335,"o":"m 335 778 l 178 778 l -51 958 l 158 958 l 335 778 z "},"́":{"ha":501,"x_min":168,"x_max":556,"o":"m 326 778 l 168 778 l 346 958 l 556 958 l 326 778 z "},"̂":{"ha":689,"x_min":78,"x_max":615,"o":"m 238 778 l 78 778 l 260 958 l 433 958 l 615 778 l 456 778 l 353 882 l 342 882 l 238 778 z "},"̃":{"ha":575,"x_min":63,"x_max":518,"o":"m 164 786 l 63 786 l 63 843 q 175 967 63 967 q 282 931 214 967 l 317 911 q 379 888 354 888 q 418 935 418 888 l 418 961 l 518 961 l 518 907 q 492 815 518 849 q 414 781 465 781 q 303 817 365 781 l 260 839 q 200 863 222 863 q 164 821 164 863 l 164 786 z "},"̄":{"ha":550,"x_min":69,"x_max":481,"o":"m 481 815 l 69 815 l 69 922 l 481 922 l 481 815 z "},"̆":{"ha":500,"x_min":50,"x_max":450,"o":"m 395 810 q 368 787 395 810 q 250 764 340 764 q 105 810 160 764 q 50 931 50 856 l 50 954 l 158 954 l 158 932 q 178 874 158 892 q 250 857 199 857 q 322 874 303 857 q 342 932 342 892 l 342 954 l 450 954 l 450 931 q 395 810 450 856 z "},"̇":{"ha":257,"x_min":54,"x_max":203,"o":"m 203 778 l 54 778 l 54 950 l 203 950 l 203 778 z "},"̈":{"ha":526,"x_min":63,"x_max":464,"o":"m 464 778 l 322 778 l 322 950 l 464 950 l 464 778 m 204 778 l 63 778 l 63 950 l 204 950 l 204 778 z "},"̊":{"ha":376,"x_min":47,"x_max":329,"o":"m 189 756 q 86 789 125 756 q 47 878 47 822 q 86 967 47 933 q 189 1000 125 1000 q 290 967 251 1000 q 329 878 329 933 q 290 789 329 822 q 189 756 251 756 m 189 821 q 258 878 258 821 q 189 935 258 935 q 118 878 118 935 q 189 821 118 821 z "},"̋":{"ha":715,"x_min":136,"x_max":742,"o":"m 568 778 l 419 778 l 551 958 l 742 958 l 568 778 m 283 778 l 136 778 l 267 958 l 458 958 l 283 778 z "},"̌":{"ha":689,"x_min":78,"x_max":615,"o":"m 433 778 l 260 778 l 78 958 l 243 958 l 342 854 l 353 854 l 450 958 l 615 958 l 433 778 z "},"̒":{"ha":872,"x_min":340,"x_max":649,"o":"m 503 958 l 649 958 l 528 778 l 340 778 l 503 958 z "},"̦":{"ha":424,"x_min":31,"x_max":339,"o":"m 176 -278 l 31 -278 l 151 -97 l 339 -97 l 176 -278 z "},"̧":{"ha":383,"x_min":156,"x_max":410,"o":"m 279 -299 l 156 -299 l 156 -214 l 281 -214 q 318 -185 318 -214 q 281 -154 318 -154 l 165 -154 l 165 4 l 249 4 l 249 -71 l 279 -71 q 375 -101 340 -71 q 410 -183 410 -132 q 376 -268 410 -237 q 279 -299 342 -299 z "},"̨":{"ha":349,"x_min":60,"x_max":306,"o":"m 306 -260 l 193 -260 q 60 -164 60 -260 q 71 -117 60 -140 q 91 -82 82 -93 q 124 -44 100 -71 l 164 0 l 264 0 l 204 -75 q 176 -131 176 -110 q 224 -165 176 -165 l 306 -165 l 306 -260 z "},"̵":{"ha":919,"x_min":193,"x_max":726,"o":"m 726 717 l 193 717 l 193 832 l 726 832 l 726 717 z "},"̷":{"ha":476,"x_min":0,"x_max":476,"o":"m 476 619 l 46 394 l 0 485 l 431 710 l 476 619 z "},"̸":{"ha":825,"x_min":38,"x_max":789,"o":"m 789 653 l 96 -24 l 38 39 l 731 715 l 789 653 z "},"Ẁ":{"ha":1471,"x_min":19,"x_max":1451,"o":"m 814 1014 l 656 1014 l 426 1190 l 638 1190 l 814 1014 m 486 0 l 265 0 l 19 931 l 186 931 l 338 342 l 379 144 l 390 144 l 440 342 l 628 931 l 846 931 l 1046 342 l 1099 144 l 1110 144 l 1149 342 l 1288 931 l 1451 931 l 1218 0 l 997 0 l 810 542 l 742 781 l 729 781 l 663 542 l 486 0 z "},"ẁ":{"ha":1224,"x_min":7,"x_max":1217,"o":"m 692 778 l 535 778 l 306 958 l 515 958 l 692 778 m 400 0 l 214 0 l 7 690 l 163 690 l 278 299 l 310 121 l 321 121 l 372 313 l 517 690 l 708 690 l 854 313 l 906 121 l 917 121 l 949 299 l 1064 690 l 1217 690 l 1007 0 l 821 0 l 669 397 l 617 567 l 606 567 l 553 397 l 400 0 z "},"Ẃ":{"ha":1471,"x_min":19,"x_max":1451,"o":"m 817 1014 l 657 1014 l 835 1190 l 1044 1190 l 817 1014 m 486 0 l 265 0 l 19 931 l 186 931 l 338 342 l 379 144 l 390 144 l 440 342 l 628 931 l 846 931 l 1046 342 l 1099 144 l 1110 144 l 1149 342 l 1288 931 l 1451 931 l 1218 0 l 997 0 l 810 542 l 742 781 l 729 781 l 663 542 l 486 0 z "},"ẃ":{"ha":1224,"x_min":7,"x_max":1217,"o":"m 690 778 l 532 778 l 710 958 l 919 958 l 690 778 m 400 0 l 214 0 l 7 690 l 163 690 l 278 299 l 310 121 l 321 121 l 372 313 l 517 690 l 708 690 l 854 313 l 906 121 l 917 121 l 949 299 l 1064 690 l 1217 690 l 1007 0 l 821 0 l 669 397 l 617 567 l 606 567 l 553 397 l 400 0 z "},"Ẅ":{"ha":1471,"x_min":19,"x_max":1451,"o":"m 938 1014 l 794 1014 l 794 1186 l 938 1186 l 938 1014 m 678 1014 l 535 1014 l 535 1186 l 678 1186 l 678 1014 m 486 0 l 265 0 l 19 931 l 186 931 l 338 342 l 379 144 l 390 144 l 440 342 l 628 931 l 846 931 l 1046 342 l 1099 144 l 1110 144 l 1149 342 l 1288 931 l 1451 931 l 1218 0 l 997 0 l 810 542 l 742 781 l 729 781 l 663 542 l 486 0 z "},"ẅ":{"ha":1224,"x_min":7,"x_max":1217,"o":"m 813 778 l 671 778 l 671 950 l 813 950 l 813 778 m 553 778 l 411 778 l 411 950 l 553 950 l 553 778 m 400 0 l 214 0 l 7 690 l 163 690 l 278 299 l 310 121 l 321 121 l 372 313 l 517 690 l 708 690 l 854 313 l 906 121 l 917 121 l 949 299 l 1064 690 l 1217 690 l 1007 0 l 821 0 l 669 397 l 617 567 l 606 567 l 553 397 l 400 0 z "},"Ẽ":{"ha":861,"x_min":69,"x_max":814,"o":"m 315 1022 l 214 1022 l 214 1078 q 325 1203 214 1203 q 432 1167 367 1203 l 468 1147 q 531 1124 506 1124 q 569 1171 569 1124 l 569 1197 l 669 1197 l 669 1143 q 643 1051 669 1085 q 564 1017 617 1017 q 454 1053 517 1017 l 411 1075 q 350 1099 374 1099 q 315 1056 315 1099 l 315 1022 m 814 0 l 69 0 l 69 931 l 814 931 l 814 796 l 219 796 l 219 535 l 793 535 l 793 401 l 219 401 l 219 135 l 814 135 l 814 0 z "},"ẽ":{"ha":817,"x_min":42,"x_max":774,"o":"m 282 786 l 181 786 l 181 843 q 292 967 181 967 q 399 931 333 967 l 433 911 q 496 888 471 888 q 535 935 535 888 l 535 961 l 635 961 l 635 907 q 531 781 635 781 q 421 817 481 781 l 376 839 q 317 863 339 863 q 282 821 282 863 l 282 786 m 417 -14 q 143 80 244 -14 q 42 344 42 174 q 144 606 42 507 q 414 704 246 704 q 676 617 578 704 q 774 376 774 531 q 768 311 774 339 l 182 311 q 241 158 186 208 q 413 107 296 107 q 617 236 617 107 l 617 247 l 767 247 l 767 235 q 669 56 767 125 q 417 -14 571 -14 m 411 586 q 183 394 196 586 l 632 394 l 632 397 q 411 586 632 586 z "},"Ỳ":{"ha":950,"x_min":-10,"x_max":961,"o":"m 554 1014 l 396 1014 l 167 1190 l 376 1190 l 554 1014 m 547 0 l 399 0 l 399 321 l -10 931 l 174 931 l 393 600 l 471 482 l 482 482 l 558 600 l 776 931 l 961 931 l 547 318 l 547 0 z "},"ỳ":{"ha":821,"x_min":0,"x_max":817,"o":"m 489 778 l 331 778 l 101 958 l 311 958 l 489 778 m 181 -236 l 82 -236 l 82 -100 l 217 -100 q 285 -86 263 -100 q 324 -36 308 -72 l 340 0 l 0 690 l 168 690 l 344 324 l 413 158 l 424 158 l 489 325 l 651 690 l 817 690 l 457 -75 q 352 -201 415 -165 q 181 -236 289 -236 z "},"Ỹ":{"ha":950,"x_min":-10,"x_max":961,"o":"m 350 1022 l 249 1022 l 249 1078 q 360 1203 249 1203 q 467 1167 401 1203 l 501 1147 q 564 1124 539 1124 q 603 1171 603 1124 l 603 1197 l 703 1197 l 703 1143 q 676 1051 703 1085 q 599 1017 650 1017 q 489 1053 549 1017 l 444 1075 q 385 1099 410 1099 q 350 1056 350 1099 l 350 1022 m 547 0 l 399 0 l 399 321 l -10 931 l 174 931 l 393 600 l 471 482 l 482 482 l 558 600 l 776 931 l 961 931 l 547 318 l 547 0 z "},"ỹ":{"ha":821,"x_min":0,"x_max":817,"o":"m 282 786 l 181 786 l 181 843 q 292 967 181 967 q 399 931 333 967 l 433 911 q 496 888 471 888 q 535 935 535 888 l 535 961 l 636 961 l 636 907 q 610 815 636 849 q 531 781 583 781 q 421 817 483 781 l 378 839 q 317 863 340 863 q 282 821 282 863 l 282 786 m 181 -236 l 82 -236 l 82 -100 l 217 -100 q 285 -86 263 -100 q 324 -36 308 -72 l 340 0 l 0 690 l 168 690 l 344 324 l 413 158 l 424 158 l 489 325 l 651 690 l 817 690 l 457 -75 q 352 -201 415 -165 q 181 -236 289 -236 z "},"–":{"ha":717,"x_min":42,"x_max":675,"o":"m 675 344 l 42 344 l 42 472 l 675 472 l 675 344 z "},"—":{"ha":1193,"x_min":42,"x_max":1151,"o":"m 1151 344 l 42 344 l 42 472 l 1151 472 l 1151 344 z "},"‘":{"ha":272,"x_min":42,"x_max":231,"o":"m 179 958 l 229 958 l 229 867 l 182 867 q 155 860 163 867 q 147 832 147 853 l 147 803 l 231 803 l 231 588 l 42 588 l 42 831 q 179 958 42 958 z "},"’":{"ha":272,"x_min":42,"x_max":231,"o":"m 94 558 l 44 558 l 44 650 l 90 650 q 117 658 108 650 q 125 686 125 665 l 125 715 l 42 715 l 42 931 l 231 931 l 231 688 q 94 558 231 558 z "},"‚":{"ha":365,"x_min":42,"x_max":231,"o":"m 94 -156 l 44 -156 l 44 -64 l 90 -64 q 117 -57 110 -64 q 125 -29 125 -50 l 125 0 l 42 0 l 42 215 l 231 215 l 231 -28 q 94 -156 231 -156 z "},"“":{"ha":532,"x_min":42,"x_max":490,"o":"m 179 958 l 229 958 l 229 867 l 182 867 q 155 860 163 867 q 147 832 147 853 l 147 803 l 231 803 l 231 588 l 42 588 l 42 831 q 179 958 42 958 m 438 958 l 488 958 l 488 867 l 442 867 q 415 860 422 867 q 407 832 407 853 l 407 803 l 490 803 l 490 588 l 300 588 l 300 831 q 438 958 300 958 z "},"”":{"ha":532,"x_min":42,"x_max":490,"o":"m 353 558 l 303 558 l 303 650 l 350 650 q 376 658 368 650 q 383 686 383 665 l 383 715 l 300 715 l 300 931 l 490 931 l 490 688 q 353 558 490 558 m 94 558 l 44 558 l 44 650 l 90 650 q 117 658 108 650 q 125 686 125 665 l 125 715 l 42 715 l 42 931 l 231 931 l 231 688 q 94 558 231 558 z "},"„":{"ha":532,"x_min":42,"x_max":490,"o":"m 94 -156 l 44 -156 l 44 -64 l 90 -64 q 117 -57 110 -64 q 125 -29 125 -50 l 125 0 l 42 0 l 42 215 l 231 215 l 231 -28 q 94 -156 231 -156 m 353 -156 l 303 -156 l 303 -64 l 350 -64 q 376 -57 368 -64 q 383 -29 383 -50 l 383 0 l 300 0 l 300 215 l 490 215 l 490 -28 q 353 -156 490 -156 z "},"†":{"ha":706,"x_min":28,"x_max":678,"o":"m 426 0 l 278 0 l 278 583 l 28 583 l 28 708 l 278 708 l 278 931 l 426 931 l 426 708 l 678 708 l 678 583 l 426 583 l 426 0 z "},"‡":{"ha":706,"x_min":28,"x_max":678,"o":"m 426 0 l 278 0 l 278 222 l 28 222 l 28 347 l 278 347 l 278 583 l 28 583 l 28 708 l 278 708 l 278 931 l 426 931 l 426 708 l 678 708 l 678 583 l 426 583 l 426 347 l 678 347 l 678 222 l 426 222 l 426 0 z "},"•":{"ha":411,"x_min":35,"x_max":376,"o":"m 327 342 q 302 318 327 342 q 206 294 278 294 q 84 342 133 294 q 35 465 35 389 q 84 589 35 542 q 206 636 133 636 q 327 589 278 636 q 376 465 376 542 q 327 342 376 389 z "},"…":{"ha":899,"x_min":49,"x_max":850,"o":"m 238 0 l 49 0 l 49 215 l 238 215 l 238 0 m 544 0 l 354 0 l 354 215 l 544 215 l 544 0 m 850 -1 l 661 -1 l 661 215 l 850 215 l 850 -1 z "},"‰":{"ha":1654,"x_min":28,"x_max":1626,"o":"m 442 549 q 411 516 442 549 q 267 483 379 483 q 91 549 154 483 q 28 715 28 614 q 91 881 28 815 q 267 946 154 946 q 442 881 379 946 q 506 715 506 815 q 442 549 506 614 m 236 0 l 90 0 l 881 931 l 1026 931 l 236 0 m 169 617 q 184 601 169 617 q 267 585 199 585 q 365 617 335 585 q 394 715 394 649 q 365 813 394 781 q 267 844 335 844 q 169 813 199 844 q 139 715 139 781 q 169 617 139 649 m 1563 51 q 1532 18 1563 51 q 1388 -14 1500 -14 q 1212 51 1275 -14 q 1149 217 1149 115 q 1212 382 1149 317 q 1388 447 1275 447 q 1563 383 1500 447 q 1626 217 1626 318 q 1563 51 1626 115 m 1024 51 q 993 18 1024 51 q 849 -14 961 -14 q 673 51 736 -14 q 610 217 610 115 q 673 382 610 317 q 849 447 736 447 q 1024 383 961 447 q 1088 217 1088 318 q 1024 51 1088 115 m 1290 119 q 1305 103 1290 119 q 1388 88 1319 88 q 1485 119 1456 88 q 1515 217 1515 150 q 1485 315 1515 283 q 1388 347 1456 347 q 1290 315 1319 347 q 1260 217 1260 283 q 1290 119 1260 150 m 751 119 q 766 103 751 119 q 849 88 781 88 q 947 119 917 88 q 976 217 976 150 q 947 315 976 283 q 849 347 917 347 q 751 315 781 347 q 721 217 721 283 q 751 119 721 150 z "},"‹":{"ha":347,"x_min":28,"x_max":306,"o":"m 28 504 l 306 697 l 306 543 l 131 429 l 131 418 l 306 304 l 306 150 l 28 343 l 28 504 z "},"›":{"ha":347,"x_min":42,"x_max":319,"o":"m 319 343 l 42 150 l 42 304 l 215 418 l 215 429 l 42 543 l 42 697 l 319 504 l 319 343 z "},"⁄":{"ha":292,"x_min":-322,"x_max":615,"o":"m -175 0 l -322 0 l 468 931 l 615 931 l -175 0 z "},"⁰":{"ha":561,"x_min":28,"x_max":533,"o":"m 465 519 q 431 485 465 519 q 281 451 397 451 q 96 519 164 451 q 28 697 28 586 q 96 876 28 808 q 281 944 164 944 q 465 876 397 944 q 533 697 533 808 q 465 519 533 586 m 281 554 q 418 697 418 554 q 384 807 418 772 q 281 842 350 842 q 176 807 210 842 q 142 697 142 772 q 176 589 142 624 q 281 554 210 554 z "},"⁴":{"ha":536,"x_min":14,"x_max":508,"o":"m 422 465 l 313 465 l 313 558 l 14 558 l 14 642 l 294 931 l 422 931 l 422 656 l 508 656 l 508 558 l 422 558 l 422 465 m 144 656 l 313 656 l 313 824 l 304 824 l 144 665 l 144 656 z "},"€":{"ha":913,"x_min":14,"x_max":871,"o":"m 707 321 l 315 321 q 414 179 342 224 q 611 135 486 135 l 871 135 l 871 0 l 611 0 q 316 85 435 0 q 157 321 197 169 l 14 321 l 14 418 l 142 418 q 140 465 140 433 q 142 511 140 496 l 14 511 l 14 608 l 157 608 q 315 846 196 761 q 611 931 433 931 l 871 931 l 871 796 l 611 796 q 413 751 485 796 q 314 608 340 707 l 707 608 l 707 511 l 300 511 q 299 465 299 497 q 300 418 299 433 l 707 418 l 707 321 z "},"₹":{"ha":850,"x_min":56,"x_max":801,"o":"m 769 0 l 569 0 l 358 242 q 272 311 315 290 q 163 332 229 332 l 56 332 l 56 457 l 331 457 q 448 485 410 457 q 492 579 486 513 l 56 579 l 56 693 l 493 693 l 493 817 l 56 817 l 56 931 l 801 931 l 801 817 l 642 817 l 642 693 l 801 693 l 801 579 l 640 579 q 390 378 619 378 l 390 367 q 448 343 421 360 q 492 310 475 326 q 539 263 510 294 l 769 0 z "},"™":{"ha":771,"x_min":14,"x_max":743,"o":"m 443 651 l 371 651 l 371 931 l 469 931 l 556 733 l 560 733 l 642 931 l 743 931 l 743 651 l 669 651 l 669 768 l 671 832 l 665 832 l 597 675 l 517 675 l 444 832 l 440 832 l 443 769 l 443 651 m 211 651 l 132 651 l 132 858 l 14 858 l 14 931 l 328 931 l 328 858 l 211 858 l 211 651 z "},"−":{"ha":675,"x_min":49,"x_max":626,"o":"m 626 403 l 49 403 l 49 528 l 626 528 l 626 403 z "},"≈":{"ha":726,"x_min":49,"x_max":678,"o":"m 175 240 l 49 240 l 49 328 q 108 454 49 419 l 108 465 l 49 465 l 49 564 q 81 671 49 629 q 189 713 114 713 q 208 712 199 713 q 227 708 217 711 q 244 704 238 706 q 263 698 251 703 q 278 692 274 693 q 296 683 283 690 q 312 674 308 676 q 329 665 315 672 q 346 656 343 657 l 418 624 q 506 585 481 585 q 553 640 553 585 l 553 701 l 678 701 l 678 614 q 618 485 678 521 l 618 478 l 678 478 l 678 389 q 647 278 678 322 q 546 233 617 233 q 389 282 486 233 l 310 318 q 225 357 250 357 q 175 301 175 357 l 175 240 m 521 354 q 571 415 571 354 l 571 474 q 525 461 554 461 q 392 508 478 461 l 304 550 q 213 589 242 589 q 157 529 157 589 l 157 472 q 214 485 179 485 q 328 436 253 485 l 411 400 q 433 388 417 397 q 456 374 449 378 q 476 365 464 371 q 500 356 489 358 q 521 354 511 354 z "},"≠":{"ha":675,"x_min":49,"x_max":626,"o":"m 626 253 l 272 253 l 179 100 l 83 154 l 143 253 l 49 253 l 49 378 l 221 378 l 328 553 l 49 553 l 49 678 l 404 678 l 497 831 l 593 776 l 533 678 l 626 678 l 626 553 l 456 553 l 349 378 l 626 378 l 626 253 z "},"≤":{"ha":668,"x_min":42,"x_max":619,"o":"m 619 67 l 42 67 l 42 193 l 488 193 l 488 203 l 42 378 l 42 553 l 619 774 l 619 632 l 178 471 l 178 460 l 619 299 l 619 67 z "},"≥":{"ha":668,"x_min":49,"x_max":626,"o":"m 626 67 l 49 67 l 49 299 l 490 460 l 490 471 l 49 632 l 49 774 l 626 553 l 626 378 l 181 203 l 181 193 l 626 193 l 626 67 z "},"ﬀ":{"ha":1043,"x_min":18,"x_max":1029,"o":"m 272 0 l 122 0 l 122 565 l 18 565 l 18 690 l 124 690 q 221 867 136 804 q 451 931 306 931 l 519 931 l 519 819 l 428 819 q 303 791 342 819 q 269 690 264 763 l 519 690 l 519 565 l 272 565 l 272 0 m 782 0 l 633 0 l 633 565 l 528 565 l 528 690 l 635 690 q 731 867 647 804 q 961 931 815 931 l 1029 931 l 1029 819 l 938 819 q 813 791 851 819 q 779 690 774 763 l 1029 690 l 1029 565 l 782 565 l 782 0 z "},"ﬁ":{"ha":822,"x_min":18,"x_max":753,"o":"m 272 0 l 122 0 l 122 565 l 18 565 l 18 690 l 124 690 q 221 867 136 804 q 451 931 306 931 l 519 931 l 519 819 l 428 819 q 303 791 342 819 q 269 690 264 763 l 519 690 l 519 565 l 272 565 l 272 0 m 753 771 l 603 771 l 603 931 l 753 931 l 753 771 m 753 0 l 603 0 l 603 690 l 753 690 l 753 0 z "},"ﬂ":{"ha":822,"x_min":18,"x_max":753,"o":"m 272 0 l 122 0 l 122 565 l 18 565 l 18 690 l 124 690 q 221 867 136 804 q 451 931 306 931 l 519 931 l 519 819 l 428 819 q 303 791 342 819 q 269 690 264 763 l 519 690 l 519 565 l 272 565 l 272 0 m 753 0 l 603 0 l 603 931 l 753 931 l 753 0 z "},"ﬃ":{"ha":1333,"x_min":18,"x_max":1263,"o":"m 272 0 l 122 0 l 122 565 l 18 565 l 18 690 l 124 690 q 221 867 136 804 q 451 931 306 931 l 519 931 l 519 819 l 428 819 q 303 791 342 819 q 269 690 264 763 l 519 690 l 519 565 l 272 565 l 272 0 m 782 0 l 633 0 l 633 565 l 528 565 l 528 690 l 635 690 q 731 867 647 804 q 961 931 815 931 l 1029 931 l 1029 819 l 938 819 q 813 791 851 819 q 779 690 774 763 l 1029 690 l 1029 565 l 782 565 l 782 0 m 1263 771 l 1114 771 l 1114 931 l 1263 931 l 1263 771 m 1263 0 l 1114 0 l 1114 690 l 1263 690 l 1263 0 z "},"ﬄ":{"ha":1333,"x_min":18,"x_max":1263,"o":"m 272 0 l 122 0 l 122 565 l 18 565 l 18 690 l 124 690 q 221 867 136 804 q 451 931 306 931 l 519 931 l 519 819 l 428 819 q 303 791 342 819 q 269 690 264 763 l 519 690 l 519 565 l 272 565 l 272 0 m 782 0 l 633 0 l 633 565 l 528 565 l 528 690 l 635 690 q 731 867 647 804 q 961 931 815 931 l 1029 931 l 1029 819 l 938 819 q 813 791 851 819 q 779 690 774 763 l 1029 690 l 1029 565 l 782 565 l 782 0 m 1263 0 l 1114 0 l 1114 931 l 1263 931 l 1263 0 z "}}}
